<?xml version="1.0" encoding="UTF-8"?>
<!DOCTYPE svg PUBLIC "-//W3C//DTD SVG 1.1//EN" "http://www.w3.org/Graphics/SVG/1.1/DTD/svg11.dtd">
<svg xmlns="http://www.w3.org/2000/svg" version="1.1" width="1920px" height="1080px" style="shape-rendering:geometricPrecision; text-rendering:geometricPrecision; image-rendering:optimizeQuality; fill-rule:evenodd; clip-rule:evenodd" xmlns:xlink="http://www.w3.org/1999/xlink">
<g><path style="opacity:1" fill="#fefefe" d="M -0.5,-0.5 C 639.5,-0.5 1279.5,-0.5 1919.5,-0.5C 1919.5,359.5 1919.5,719.5 1919.5,1079.5C 1279.5,1079.5 639.5,1079.5 -0.5,1079.5C -0.5,719.5 -0.5,359.5 -0.5,-0.5 Z"/></g>
<g><path style="opacity:1" fill="#fdce64" d="M 692.5,336.5 C 693.117,336.611 693.617,336.944 694,337.5C 695.678,344.544 697.511,351.544 699.5,358.5C 706.333,361.126 713.333,363.293 720.5,365C 713.545,367.155 706.545,369.155 699.5,371C 697.339,378.15 695.173,385.317 693,392.5C 691.199,385.431 689.199,378.431 687,371.5C 679.815,369.461 672.648,367.294 665.5,365C 672.615,362.597 679.781,360.431 687,358.5C 689.152,351.226 690.985,343.892 692.5,336.5 Z"/></g>
<g><path style="opacity:1" fill="#fccd61" d="M 519.5,353.5 C 521.199,353.34 522.866,353.506 524.5,354C 515.357,371.095 509.19,389.262 506,408.5C 498.911,453.815 498.911,499.148 506,544.5C 512.025,581.695 518.692,618.695 526,655.5C 505.566,624.64 488.233,591.974 474,557.5C 465.185,535.573 459.185,512.907 456,489.5C 451.911,457.261 456.911,426.595 471,397.5C 476.411,389.418 482.578,381.918 489.5,375C 499.038,367.076 509.038,359.909 519.5,353.5 Z"/></g>
<g><path style="opacity:1" fill="#fccd61" d="M 528.5,354.5 C 549.826,360.262 566.326,372.928 578,392.5C 594.817,422.442 600.817,454.442 596,488.5C 586.367,549.08 564.034,604.413 529,654.5C 537.217,614.408 544.55,574.075 551,533.5C 560.47,479.418 556.47,426.418 539,374.5C 536.25,367.33 532.75,360.663 528.5,354.5 Z"/></g>
<g><path style="opacity:1" fill="#fccd64" d="M 506.5,354.5 C 507.873,354.343 509.207,354.51 510.5,355C 476.274,365.258 448.774,384.758 428,413.5C 411.905,438.488 407.239,465.488 414,494.5C 419.53,512.222 426.696,529.222 435.5,545.5C 432.354,546.289 429.187,546.955 426,547.5C 413.534,530.231 404.534,511.231 399,490.5C 394.689,446.086 409.855,409.919 444.5,382C 463.142,368.177 483.808,359.011 506.5,354.5 Z"/></g>
<g><path style="opacity:1" fill="#fcce65" d="M 540.5,355.5 C 580.258,359.642 612.091,377.975 636,410.5C 637.555,412.443 638.722,414.61 639.5,417C 638.082,420.001 637.249,423.168 637,426.5C 635.817,427.731 634.651,427.731 633.5,426.5C 625.076,408.149 612.742,392.982 596.5,381C 579.461,368.982 560.795,360.482 540.5,355.5 Z"/></g>
<g><path style="opacity:1" fill="#fdd06c" d="M 711.5,385.5 C 713.267,387.792 714.267,390.458 714.5,393.5C 722.32,394.484 722.32,395.317 714.5,396C 713.594,398.447 712.761,400.947 712,403.5C 712.475,397.47 709.641,394.637 703.5,395C 705.594,393.648 707.927,393.148 710.5,393.5C 710.833,390.833 711.167,388.167 711.5,385.5 Z"/></g>
<g><path style="opacity:1" fill="#f5f5f5" d="M 601.5,583.5 C 613.915,567.657 625.582,551.324 636.5,534.5C 636.031,535.725 636.698,536.725 638.5,537.5C 655.15,525.507 673.15,520.841 692.5,523.5C 693.584,522.335 694.417,521.002 695,519.5C 696.666,520.34 696.833,519.84 695.5,518C 696.428,517.612 697.095,516.945 697.5,516C 695.187,491.976 705.854,477.31 729.5,472C 745.302,469.819 758.136,474.985 768,487.5C 771.085,492.672 774.419,497.672 778,502.5C 782.618,508.053 788.451,509.886 795.5,508C 805.178,504.364 815.178,502.198 825.5,501.5C 833.974,502.346 842.14,503.679 850,505.5C 852.399,503.305 854.899,501.972 857.5,501.5C 879.111,467.444 910.111,452.611 950.5,457C 956.149,457.954 961.649,459.454 967,461.5C 969.318,461.484 971.651,461.484 974,461.5C 975.097,459.947 976.43,458.614 978,457.5C 978.333,457.833 978.667,458.167 979,458.5C 985.597,446.601 995.764,439.767 1009.5,438C 1029.03,434.961 1048.53,431.794 1068,428.5C 1079.28,428.887 1089.95,431.554 1100,436.5C 1102.1,436.306 1104.26,436.306 1106.5,436.5C 1113.92,433.13 1121.59,430.296 1129.5,428C 1139.75,426.731 1149.75,427.731 1159.5,431C 1166.51,434.835 1173.17,439.169 1179.5,444C 1181.2,444.958 1183.03,445.458 1185,445.5C 1194.2,442.151 1203.37,438.651 1212.5,435C 1230.53,431.088 1246.19,435.421 1259.5,448C 1260.45,448.617 1261.28,448.451 1262,447.5C 1262.61,449.481 1263.61,449.815 1265,448.5C 1265.33,449.167 1265.67,449.833 1266,450.5C 1295.64,441.805 1322.81,446.972 1347.5,466C 1352.09,470.925 1356.92,475.425 1362,479.5C 1364.94,480.79 1367.77,481.457 1370.5,481.5C 1382.66,477.268 1394.66,477.768 1406.5,483C 1412.08,485.86 1417.75,488.526 1423.5,491C 1433.73,494.076 1443.73,497.743 1453.5,502C 1459.4,506.07 1464.07,511.237 1467.5,517.5C 1468.32,518.386 1469.32,518.719 1470.5,518.5C 1470.35,519.552 1470.52,520.552 1471,521.5C 1471.33,521.167 1471.67,520.833 1472,520.5C 1473.69,522.027 1475.53,523.36 1477.5,524.5C 1502.77,527.046 1523.27,538.046 1539,557.5C 1541.84,564.887 1544.67,572.22 1547.5,579.5C 1549.29,580.316 1550.95,581.316 1552.5,582.5C 1594.54,586.377 1620.7,608.711 1631,649.5C 1634.78,680.442 1622.95,702.942 1595.5,717C 1577.78,738.181 1556.11,743.514 1530.5,733C 1505.25,721.998 1488.08,703.498 1479,677.5C 1478.67,677.833 1478.33,678.167 1478,678.5C 1476.22,676.481 1474.06,674.981 1471.5,674C 1440.78,672.07 1417.28,658.237 1401,632.5C 1399.71,629.595 1398.71,626.595 1398,623.5C 1397.77,617.629 1397.27,611.796 1396.5,606C 1396.74,605.127 1397.07,604.293 1397.5,603.5C 1396.28,603.891 1395.45,603.224 1395,601.5C 1392.7,601.409 1391.03,602.743 1390,605.5C 1389.67,604.833 1389.33,604.167 1389,603.5C 1379.06,614.814 1366.56,618.981 1351.5,616C 1341.78,614.063 1333.94,609.23 1328,601.5C 1327.67,601.833 1327.33,602.167 1327,602.5C 1325,601.167 1323,599.833 1321,598.5C 1319.98,599.634 1319.32,599.301 1319,597.5C 1285.51,602.879 1257.18,593.213 1234,568.5C 1230.75,563.666 1227.75,558.666 1225,553.5C 1224.67,553.833 1224.33,554.167 1224,554.5C 1223.16,553.376 1221.99,552.709 1220.5,552.5C 1218.8,553.068 1217.3,553.068 1216,552.5C 1198.68,575.123 1177.51,579.623 1152.5,566C 1146.9,561.234 1142.23,555.734 1138.5,549.5C 1137.24,548.618 1136.07,547.618 1135,546.5C 1133.98,547.634 1133.32,547.301 1133,545.5C 1132.67,546.167 1132.33,546.833 1132,547.5C 1130.67,547.5 1129.33,547.5 1128,547.5C 1122.17,556 1115,563.167 1106.5,569C 1095.78,574.094 1084.78,578.427 1073.5,582C 1071.62,583.543 1070.12,585.376 1069,587.5C 1067.24,593.4 1065.91,599.4 1065,605.5C 1059.21,623.93 1046.55,633.263 1027,633.5C 1004.56,632.393 991.558,620.726 988,598.5C 985.372,595.167 982.206,593.501 978.5,593.5C 958.97,606.049 937.637,611.049 914.5,608.5C 909.047,609.519 904.381,611.352 900.5,614C 888.118,629.518 872.118,635.018 852.5,630.5C 850.077,630.594 847.744,631.094 845.5,632C 840.959,638.962 836.793,646.129 833,653.5C 823.886,663.389 812.553,668.722 799,669.5C 796.042,671.36 793.208,673.36 790.5,675.5C 773.956,709.203 747.289,730.036 710.5,738C 681.078,740.637 665.078,727.304 662.5,698C 663.276,692.68 663.942,687.346 664.5,682C 664.536,679.37 664.036,676.87 663,674.5C 653.8,669.762 644.3,665.596 634.5,662C 607.361,643.912 597.028,618.912 603.5,587C 603.192,585.541 602.525,584.374 601.5,583.5 Z"/></g>
<g><path style="opacity:1" fill="#e2e2e2" d="M 1118.5,443.5 C 1120.59,446.088 1121.93,449.088 1122.5,452.5C 1122.65,453.552 1122.48,454.552 1122,455.5C 1117.09,458.519 1111.92,459.853 1106.5,459.5C 1085.85,439.696 1063.18,437.196 1038.5,452C 1035.62,454.709 1032.96,457.542 1030.5,460.5C 1029.46,456.895 1028.79,453.228 1028.5,449.5C 1020.53,450.663 1012.53,451.663 1004.5,452.5C 1005.85,450.52 1007.85,449.353 1010.5,449C 1026.97,446.754 1043.31,443.754 1059.5,440C 1066.88,439.253 1074.21,439.586 1081.5,441C 1088.87,443.401 1096.2,445.901 1103.5,448.5C 1107.69,448.513 1112.02,448.013 1116.5,447C 1117.82,446.184 1118.49,445.017 1118.5,443.5 Z"/></g>
<g><path style="opacity:1" fill="#020202" d="M 1160.5,444.5 C 1163.26,454.124 1166.6,463.457 1170.5,472.5C 1173.17,481.687 1176.34,490.687 1180,499.5C 1184.45,491.604 1188.61,483.604 1192.5,475.5C 1197.67,467.16 1202.34,458.493 1206.5,449.5C 1207.27,448.828 1207.93,447.995 1208.5,447C 1219.52,446.835 1230.52,447.335 1241.5,448.5C 1244.17,449.167 1246.83,449.833 1249.5,450.5C 1248.83,451.833 1248.17,453.167 1247.5,454.5C 1245.85,457.131 1244.18,459.797 1242.5,462.5C 1224.25,490.656 1206.25,518.989 1188.5,547.5C 1180.5,547.067 1172.5,546.567 1164.5,546C 1163.94,545.617 1163.61,545.117 1163.5,544.5C 1150.35,513.533 1136.68,482.867 1122.5,452.5C 1121.93,449.088 1120.59,446.088 1118.5,443.5C 1118.46,442.417 1118.13,441.417 1117.5,440.5C 1118.83,440.167 1120.17,439.833 1121.5,439.5C 1132.15,440.475 1142.82,441.309 1153.5,442C 1156.18,442.168 1158.51,443.001 1160.5,444.5 Z"/></g>
<g><path style="opacity:1" fill="#020202" d="M 1106.5,459.5 C 1120.18,478.274 1123.02,498.608 1115,520.5C 1106.43,539.04 1091.93,549.04 1071.5,550.5C 1060.4,551.184 1050.23,548.517 1041,542.5C 1040.79,550.727 1041.63,558.727 1043.5,566.5C 1043.34,573.062 1044,579.395 1045.5,585.5C 1045.78,589.332 1046.11,593.165 1046.5,597C 1046.34,599.449 1045.68,601.616 1044.5,603.5C 1035.02,604.637 1025.52,605.637 1016,606.5C 1014.21,606.241 1012.71,605.575 1011.5,604.5C 1010.72,594.471 1009.72,584.471 1008.5,574.5C 1004.15,540.373 999.821,506.373 995.5,472.5C 995.1,466.171 994.767,459.838 994.5,453.5C 997.807,452.949 1001.14,452.616 1004.5,452.5C 1012.53,451.663 1020.53,450.663 1028.5,449.5C 1028.79,453.228 1029.46,456.895 1030.5,460.5C 1032.96,457.542 1035.62,454.709 1038.5,452C 1063.18,437.196 1085.85,439.696 1106.5,459.5 Z"/></g>
<g><path style="opacity:1" fill="#e4e4e4" d="M 1160.5,444.5 C 1166.6,449.091 1172.26,454.258 1177.5,460C 1181.83,463.333 1186.17,463.333 1190.5,460C 1195.46,455.858 1200.8,452.358 1206.5,449.5C 1202.34,458.493 1197.67,467.16 1192.5,475.5C 1184.37,480.234 1177.04,479.234 1170.5,472.5C 1166.6,463.457 1163.26,454.124 1160.5,444.5 Z"/></g>
<g><path style="opacity:1" fill="#727272" d="M 1241.5,448.5 C 1244.57,448.183 1247.57,448.516 1250.5,449.5C 1250.38,450.107 1250.04,450.44 1249.5,450.5C 1246.83,449.833 1244.17,449.167 1241.5,448.5 Z"/></g>
<g><path style="opacity:1" fill="#e3e3e3" d="M 1247.5,454.5 C 1252.13,459.071 1257.79,461.404 1264.5,461.5C 1274.22,459.322 1284.06,457.989 1294,457.5C 1308.81,457.437 1322.31,461.603 1334.5,470C 1342.69,477.528 1350.86,485.028 1359,492.5C 1364.2,493.785 1369.36,493.785 1374.5,492.5C 1373.11,496.286 1371.44,499.952 1369.5,503.5C 1366.93,503.344 1364.43,503.678 1362,504.5C 1357.09,502.819 1352.59,500.485 1348.5,497.5C 1341.67,478.55 1328.34,466.717 1308.5,462C 1290.6,457.681 1274.26,460.848 1259.5,471.5C 1254.11,472.102 1249.44,470.602 1245.5,467C 1243.86,465.871 1242.86,464.371 1242.5,462.5C 1244.18,459.797 1245.85,457.131 1247.5,454.5 Z"/></g>
<g><path style="opacity:1" fill="#e1e1e1" d="M 994.5,453.5 C 994.767,459.838 995.1,466.171 995.5,472.5C 994.577,477.96 992.411,482.96 989,487.5C 987.636,486.742 986.469,487.242 985.5,489C 984.207,489.49 982.873,489.657 981.5,489.5C 973.18,479.5 962.514,473.333 949.5,471C 922.521,466.909 900.021,475.076 882,495.5C 873.217,507.017 869.384,520.017 870.5,534.5C 869.441,537.908 867.108,540.241 863.5,541.5C 852.459,518.154 834.459,510.321 809.5,518C 795.535,523.465 786.201,533.298 781.5,547.5C 769.584,527.338 757.917,507.004 746.5,486.5C 752.014,487.85 756.514,490.85 760,495.5C 764.667,502.167 769.333,508.833 774,515.5C 778.792,520.646 784.625,522.479 791.5,521C 797.231,519.201 802.898,517.201 808.5,515C 813.884,513.39 819.384,512.557 825,512.5C 834.455,513.476 843.455,515.143 852,517.5C 854.724,516.108 857.557,514.942 860.5,514C 867.455,504.71 874.788,495.71 882.5,487C 908.493,466.085 936.993,461.251 968,472.5C 970.667,473.167 973.333,473.833 976,474.5C 985.282,470.063 991.449,463.063 994.5,453.5 Z"/></g>
<g><path style="opacity:1" fill="#020202" d="M 1348.5,497.5 C 1351.26,508.894 1350.76,520.227 1347,531.5C 1346.28,532.059 1345.44,532.392 1344.5,532.5C 1321.41,526.785 1298.41,520.785 1275.5,514.5C 1272.05,524.479 1275.05,532.312 1284.5,538C 1294.99,542.901 1305.33,542.567 1315.5,537C 1316.83,536.333 1318.17,536.333 1319.5,537C 1326.01,542.677 1332.34,548.511 1338.5,554.5C 1328.1,564.972 1315.43,569.972 1300.5,569.5C 1259.17,567.338 1238.67,545.671 1239,504.5C 1241.81,490.854 1248.64,479.854 1259.5,471.5C 1274.26,460.848 1290.6,457.681 1308.5,462C 1328.34,466.717 1341.67,478.55 1348.5,497.5 Z"/></g>
<g><path style="opacity:1" fill="#fbcc62" d="M 652.5,470.5 C 653.5,470.5 654.5,470.5 655.5,470.5C 655.5,474.5 655.5,478.5 655.5,482.5C 655.178,489.436 653.678,496.103 651,502.5C 646.437,513.386 641.603,524.053 636.5,534.5C 625.582,551.324 613.915,567.657 601.5,583.5C 589.233,596.938 576.733,610.271 564,623.5C 581.116,602.66 596.45,580.327 610,556.5C 620.328,536.513 628.995,515.847 636,494.5C 637.881,486.929 639.048,479.262 639.5,471.5C 643.842,471.261 648.176,470.927 652.5,470.5 Z"/></g>
<g><path style="opacity:1" fill="#020202" d="M 981.5,489.5 C 992.393,503.876 995.56,519.876 991,537.5C 981.722,560.654 964.722,574.321 940,578.5C 903.113,585.062 879.946,570.395 870.5,534.5C 869.384,520.017 873.217,507.017 882,495.5C 900.021,475.076 922.521,466.909 949.5,471C 962.514,473.333 973.18,479.5 981.5,489.5 Z"/></g>
<g><path style="opacity:1" fill="#fdeabf" d="M 652.5,470.5 C 653.568,469.566 654.901,469.232 656.5,469.5C 656.818,474.032 656.485,478.366 655.5,482.5C 655.5,478.5 655.5,474.5 655.5,470.5C 654.5,470.5 653.5,470.5 652.5,470.5 Z"/></g>
<g><path style="opacity:1" fill="#020202" d="M 746.5,486.5 C 757.917,507.004 769.584,527.338 781.5,547.5C 786.201,533.298 795.535,523.465 809.5,518C 834.459,510.321 852.459,518.154 863.5,541.5C 871.076,556.991 879.409,571.991 888.5,586.5C 889.014,588.366 889.68,590.2 890.5,592C 880.535,598.461 870.201,604.294 859.5,609.5C 857.692,604.55 855.358,599.883 852.5,595.5C 845.265,582.032 837.765,568.699 830,555.5C 821.513,547.213 812.346,546.38 802.5,553C 794.103,562.439 793.436,572.273 800.5,582.5C 808.44,597.76 816.774,612.76 825.5,627.5C 825.443,628.609 825.11,629.609 824.5,630.5C 814.876,634.979 805.542,639.979 796.5,645.5C 795.504,645.586 794.671,645.252 794,644.5C 792.741,641.644 791.241,638.977 789.5,636.5C 768.738,598.637 747.738,560.97 726.5,523.5C 723.658,517.143 720.325,511.143 716.5,505.5C 715.083,502.331 713.417,499.331 711.5,496.5C 721.521,490.4 731.688,484.4 742,478.5C 743.765,481.032 745.265,483.699 746.5,486.5 Z"/></g>
<g><path style="opacity:1" fill="#cdcdcd" d="M 1170.5,472.5 C 1177.04,479.234 1184.37,480.234 1192.5,475.5C 1188.61,483.604 1184.45,491.604 1180,499.5C 1176.34,490.687 1173.17,481.687 1170.5,472.5 Z"/></g>
<g><path style="opacity:1" fill="#cccccc" d="M 1074.5,514.5 C 1078.37,504.29 1076.04,495.79 1067.5,489C 1051.65,482.925 1042.32,488.258 1039.5,505C 1039.93,508.233 1040.6,511.4 1041.5,514.5C 1038.38,512.276 1036.21,509.276 1035,505.5C 1031.63,489.728 1037.46,479.228 1052.5,474C 1073.7,473.2 1083.2,483.367 1081,504.5C 1080.56,509.021 1078.39,512.354 1074.5,514.5 Z"/></g>
<g><path style="opacity:1" fill="#bfbfbf" d="M 1292.5,483.5 C 1299.29,483.041 1305.62,484.541 1311.5,488C 1316.75,492.669 1319.08,498.502 1318.5,505.5C 1305.62,502.614 1292.95,499.114 1280.5,495C 1283.1,489.56 1287.1,485.727 1292.5,483.5 Z"/></g>
<g><path style="opacity:1" fill="#efefef" d="M 691.5,533.5 C 687.119,533.372 682.785,533.705 678.5,534.5C 659.238,536.214 643.071,544.214 630,558.5C 610.873,580.521 607.206,604.855 619,631.5C 627.052,644.936 638.385,653.603 653,657.5C 664.711,660.174 676.545,662.34 688.5,664C 689.517,665.049 689.684,666.216 689,667.5C 687.404,670.369 685.57,673.036 683.5,675.5C 682.5,675.5 681.5,675.5 680.5,675.5C 680.5,676.5 680.5,677.5 680.5,678.5C 678.403,683.034 676.569,687.7 675,692.5C 672.853,710.387 680.353,721.887 697.5,727C 713.472,727.9 728.139,723.9 741.5,715C 759.957,703.71 773.624,688.21 782.5,668.5C 786.256,664.569 790.423,661.236 795,658.5C 823.642,655.331 834.642,639.331 828,610.5C 825.767,605.134 823.934,599.634 822.5,594C 822.509,592.596 823.009,591.43 824,590.5C 831.112,598.946 838.946,606.779 847.5,614C 858.538,620.425 869.871,621.092 881.5,616C 888.853,608.973 897.02,603.14 906,598.5C 906.333,598.833 906.667,599.167 907,599.5C 909.333,598.833 911.667,598.167 914,597.5C 930.468,600.344 946.301,598.177 961.5,591C 968.585,586.707 975.751,582.54 983,578.5C 984.458,579.747 985.958,579.747 987.5,578.5C 989.332,579.248 990.999,580.248 992.5,581.5C 996.333,590.827 1000.17,600.161 1004,609.5C 1015.15,622.418 1028.32,624.918 1043.5,617C 1048.55,613.285 1052.05,608.452 1054,602.5C 1055.45,595.112 1057.12,587.779 1059,580.5C 1059.88,577.898 1061.38,575.731 1063.5,574C 1072.89,569.902 1082.55,566.569 1092.5,564C 1101.12,560.045 1108.62,554.545 1115,547.5C 1118.59,541.99 1122.42,536.657 1126.5,531.5C 1129.37,528.854 1132.7,528.021 1136.5,529C 1142.1,534.369 1146.6,540.535 1150,547.5C 1162.14,562.578 1176.98,566.078 1194.5,558C 1202.53,551.306 1209.86,543.973 1216.5,536C 1221.45,533.35 1225.62,534.184 1229,538.5C 1246.72,577.099 1276.22,593.099 1317.5,586.5C 1327.89,588.696 1336.89,593.529 1344.5,601C 1361.5,608.779 1375.33,604.946 1386,589.5C 1390.8,579.384 1396.97,570.217 1404.5,562C 1412.41,557.825 1420.41,557.492 1428.5,561C 1433.59,565.026 1435.92,570.026 1435.5,576C 1433.74,584.1 1429.24,590.267 1422,594.5C 1421.54,595.094 1421.37,595.761 1421.5,596.5C 1418.45,597.777 1415.61,599.444 1413,601.5C 1413.36,604.112 1413.86,606.779 1414.5,609.5C 1412.87,623.098 1417.54,634.264 1428.5,643C 1442.8,654.306 1459.13,660.306 1477.5,661C 1480.24,661.803 1482.91,662.803 1485.5,664C 1489.26,667.679 1492.43,671.846 1495,676.5C 1503.26,698.425 1518.42,713.258 1540.5,721C 1550.26,723.712 1559.59,722.712 1568.5,718C 1578.1,708.066 1589.1,700.066 1601.5,694C 1616.04,680.331 1620.54,663.831 1615,644.5C 1611.95,634.349 1606.45,626.015 1598.5,619.5C 1583.93,602.23 1565.26,594.896 1542.5,597.5C 1539.41,596.572 1536.24,595.572 1533,594.5C 1531.98,595.634 1531.32,595.301 1531,593.5C 1530.67,593.833 1530.33,594.167 1530,594.5C 1528.96,591.595 1527.8,588.761 1526.5,586C 1526.67,583.247 1526.67,580.08 1526.5,576.5C 1528.56,575.441 1529.89,573.775 1530.5,571.5C 1530.28,567.015 1528.78,563.015 1526,559.5C 1517.61,550.053 1507.44,543.22 1495.5,539C 1486.39,537.461 1477.39,535.461 1468.5,533C 1463.98,530.296 1459.98,527.129 1456.5,523.5C 1455.17,521.833 1453.83,520.167 1452.5,518.5C 1451.8,516.284 1450.46,514.451 1448.5,513C 1444.99,510.746 1441.33,508.746 1437.5,507C 1424.19,502.785 1411.19,497.785 1398.5,492C 1394.91,490.892 1391.25,490.392 1387.5,490.5C 1384.31,489.403 1381.31,488.07 1378.5,486.5C 1384.85,485.103 1391.19,485.27 1397.5,487C 1412.83,493.833 1428.5,499.833 1444.5,505C 1452.98,510.003 1459.64,516.17 1464.5,523.5C 1468.88,527.36 1473.88,530.193 1479.5,532C 1502.98,533.646 1521.15,544.146 1534,563.5C 1535.65,568.045 1536.82,572.711 1537.5,577.5C 1539.97,581.336 1542.47,584.669 1545,587.5C 1564.97,588.382 1583.13,594.882 1599.5,607C 1625.32,629.791 1631.49,656.957 1618,688.5C 1615.59,692.916 1612.42,696.749 1608.5,700C 1597.42,706.213 1587.42,713.879 1578.5,723C 1564.01,732.741 1548.68,734.075 1532.5,727C 1511.52,717.355 1496.69,701.855 1488,680.5C 1485.51,677.01 1482.68,673.843 1479.5,671C 1467.82,668.185 1456.16,665.185 1444.5,662C 1426.86,655.281 1414.02,643.448 1406,626.5C 1403.07,616.505 1404.41,607.171 1410,598.5C 1415.67,593.5 1421.33,588.5 1427,583.5C 1432.28,574.877 1430.12,568.043 1420.5,563C 1411.04,562.445 1403.87,566.278 1399,574.5C 1394.39,586.584 1387.22,596.75 1377.5,605C 1366.33,610.573 1355,610.906 1343.5,606C 1335.67,599.447 1327.34,594.613 1318.5,591.5C 1287.92,596.311 1261.76,587.644 1240,565.5C 1236,560.168 1232.5,554.502 1229.5,548.5C 1224.8,541.557 1219.63,540.891 1214,546.5C 1213.67,546.167 1213.33,545.833 1213,545.5C 1197.56,568.211 1178.06,572.711 1154.5,559C 1148.9,553.631 1144.4,547.465 1141,540.5C 1140.67,540.833 1140.33,541.167 1140,541.5C 1135.33,534.833 1130.67,534.833 1126,541.5C 1125.67,541.167 1125.33,540.833 1125,540.5C 1118.06,552.103 1108.56,560.936 1096.5,567C 1088.23,569.819 1079.89,572.486 1071.5,575C 1067.33,576.5 1064.5,579.333 1063,583.5C 1061.24,589.4 1059.91,595.4 1059,601.5C 1053.12,619.701 1040.62,627.867 1021.5,626C 1013.02,624.513 1006.19,620.346 1001,613.5C 997.324,605.127 993.657,596.793 990,588.5C 988.177,586.833 986.01,585.833 983.5,585.5C 982.137,586.198 980.971,586.198 980,585.5C 963.794,596.68 945.794,602.68 926,603.5C 919.179,602.453 912.846,602.453 907,603.5C 903.879,605.504 900.879,606.837 898,607.5C 883.876,625.071 866.376,629.238 845.5,620C 843.167,619.333 840.833,619.333 838.5,620C 836.086,626.711 833.92,633.545 832,640.5C 826.032,653.447 815.866,660.614 801.5,662C 798.294,662.946 795.461,664.446 793,666.5C 792.667,666.167 792.333,665.833 792,665.5C 788.95,667.928 786.617,670.928 785,674.5C 775.029,693.158 760.529,708.325 741.5,720C 727.098,729.184 711.432,732.851 694.5,731C 676.332,725.145 668.166,712.645 670,693.5C 671.26,687.72 672.927,682.053 675,676.5C 676.538,671.88 675.038,668.713 670.5,667C 621.943,658.809 602.11,630.643 611,582.5C 619.965,558.221 637.465,541.388 663.5,532C 671.416,529.274 679.416,528.941 687.5,531C 689.32,531.2 690.653,532.034 691.5,533.5 Z"/></g>
<g><path style="opacity:1" fill="#020202" d="M 1378.5,486.5 C 1381.31,488.07 1384.31,489.403 1387.5,490.5C 1394.81,493.89 1402.14,497.39 1409.5,501C 1407.84,504.651 1406.18,508.318 1404.5,512C 1404.83,512.5 1405.17,513 1405.5,513.5C 1422.25,504.425 1437.92,506.091 1452.5,518.5C 1453.83,520.167 1455.17,521.833 1456.5,523.5C 1457.68,524.688 1457.68,525.855 1456.5,527C 1448.64,533.689 1440.64,540.189 1432.5,546.5C 1425.31,536.572 1415.65,532.072 1403.5,533C 1395.21,536.63 1389.71,542.797 1387,551.5C 1381.22,565.517 1375.05,579.351 1368.5,593C 1357.93,589.747 1347.6,585.58 1337.5,580.5C 1336.57,578.905 1336.57,577.239 1337.5,575.5C 1348.68,551.804 1359.34,527.804 1369.5,503.5C 1371.44,499.952 1373.11,496.286 1374.5,492.5C 1375.35,490.118 1376.68,488.118 1378.5,486.5 Z"/></g>
<g><path style="opacity:1" fill="#d2d2d2" d="M 1122.5,452.5 C 1136.68,482.867 1150.35,513.533 1163.5,544.5C 1160.7,543.294 1158.54,541.294 1157,538.5C 1152.89,532.609 1149.55,526.276 1147,519.5C 1142.31,513.478 1137.64,507.478 1133,501.5C 1131.67,501.5 1130.33,501.5 1129,501.5C 1128.15,503.125 1127.15,503.458 1126,502.5C 1124.18,506.782 1122.51,511.115 1121,515.5C 1116.63,527.075 1110.13,537.242 1101.5,546C 1098,548.583 1094.34,550.916 1090.5,553C 1080.25,556.25 1069.92,559.25 1059.5,562C 1055.39,563.779 1052.22,566.612 1050,570.5C 1048.01,575.482 1046.51,580.482 1045.5,585.5C 1044,579.395 1043.34,573.062 1043.5,566.5C 1050.47,557.016 1059.8,551.682 1071.5,550.5C 1091.93,549.04 1106.43,539.04 1115,520.5C 1123.02,498.608 1120.18,478.274 1106.5,459.5C 1111.92,459.853 1117.09,458.519 1122,455.5C 1122.48,454.552 1122.65,453.552 1122.5,452.5 Z"/></g>
<g><path style="opacity:1" fill="#dcdcdc" d="M 1074.5,514.5 C 1070.29,519.685 1064.79,522.018 1058,521.5C 1051.03,522.352 1045.53,520.018 1041.5,514.5C 1040.6,511.4 1039.93,508.233 1039.5,505C 1042.32,488.258 1051.65,482.925 1067.5,489C 1076.04,495.79 1078.37,504.29 1074.5,514.5 Z"/></g>
<g><path style="opacity:1" fill="#e0e0e0" d="M 1387.5,490.5 C 1391.25,490.392 1394.91,490.892 1398.5,492C 1411.19,497.785 1424.19,502.785 1437.5,507C 1441.33,508.746 1444.99,510.746 1448.5,513C 1450.46,514.451 1451.8,516.284 1452.5,518.5C 1437.92,506.091 1422.25,504.425 1405.5,513.5C 1405.17,513 1404.83,512.5 1404.5,512C 1406.18,508.318 1407.84,504.651 1409.5,501C 1402.14,497.39 1394.81,493.89 1387.5,490.5 Z"/></g>
<g><path style="opacity:1" fill="#e6e6e6" d="M 711.5,496.5 C 713.417,499.331 715.083,502.331 716.5,505.5C 715.867,513.449 717.034,521.116 720,528.5C 726.826,542.154 734.159,555.488 742,568.5C 744.762,573.791 746.929,579.291 748.5,585C 747.827,587.859 746.993,590.692 746,593.5C 744.556,595.155 742.722,595.822 740.5,595.5C 732.523,594.51 724.523,594.343 716.5,595C 705.443,597.681 694.443,600.514 683.5,603.5C 675.384,602.853 672.551,598.52 675,590.5C 678.513,584.809 682.513,579.476 687,574.5C 688.411,572.35 689.245,570.016 689.5,567.5C 692.37,566.366 695.37,565.7 698.5,565.5C 697.288,556.319 695.288,547.319 692.5,538.5C 696.741,541.523 699.741,545.023 701.5,549C 703.279,552.781 704.279,556.781 704.5,561C 703.465,568.805 701.799,576.472 699.5,584C 700.64,587.915 703.306,589.915 707.5,590C 714.167,590.667 720.833,590.667 727.5,590C 732.438,589.728 735.604,587.228 737,582.5C 737.401,578.684 736.734,575.017 735,571.5C 729.156,560.396 722.989,550.062 716.5,540.5C 711.703,531.536 709.037,522.036 708.5,512C 708.316,506.574 709.316,501.407 711.5,496.5 Z"/></g>
<g><path style="opacity:1" fill="#cdcdcd" d="M 927.5,500.5 C 951.187,502.355 959.687,514.689 953,537.5C 946.14,546.572 936.974,550.405 925.5,549C 911.854,543.454 906.021,533.287 908,518.5C 911.545,509.116 918.045,503.116 927.5,500.5 Z"/></g>
<g><path style="opacity:1" fill="#e1e1e1" d="M 1438.5,592.5 C 1438.34,590.847 1437.67,589.514 1436.5,588.5C 1444.92,563.458 1436.25,552.291 1410.5,555C 1403.43,557.115 1397.93,561.282 1394,567.5C 1389.11,578.128 1382.61,587.628 1374.5,596C 1363.03,602.461 1352.03,601.794 1341.5,594C 1335.96,588.483 1329.46,584.65 1322,582.5C 1315.16,582.102 1307.49,582.769 1299,584.5C 1265.07,581.871 1242.4,564.538 1231,532.5C 1228.67,530.5 1226.33,528.5 1224,526.5C 1219.48,528.503 1215.31,531.169 1211.5,534.5C 1205.98,543.524 1198.64,550.691 1189.5,556C 1173.93,561.033 1161.43,556.866 1152,543.5C 1148.39,536.894 1144.39,530.561 1140,524.5C 1134.06,519.129 1128.72,519.795 1124,526.5C 1117.05,542.57 1105.55,554.07 1089.5,561C 1079.95,563.385 1070.62,566.385 1061.5,570C 1059.29,571.873 1057.46,574.04 1056,576.5C 1053.7,583.682 1052.03,591.015 1051,598.5C 1043.63,616.601 1031.13,621.434 1013.5,613C 1009.24,609.642 1006.07,605.475 1004,600.5C 1002.38,591.15 998.881,582.65 993.5,575C 992.224,573.788 990.724,572.955 989,572.5C 984.618,573.405 980.452,574.905 976.5,577C 955.081,592.933 931.581,598.767 906,594.5C 903.912,595.308 901.912,596.308 900,597.5C 899.667,597.167 899.333,596.833 899,596.5C 892.5,601.667 886,606.833 879.5,612C 868.012,617.5 857.345,616.167 847.5,608C 840.726,600.282 834.559,592.115 829,583.5C 817.802,574.747 812.802,577.413 814,591.5C 817.61,599.721 820.943,608.054 824,616.5C 824.936,620.114 825.436,623.78 825.5,627.5C 816.774,612.76 808.44,597.76 800.5,582.5C 800.215,567.948 807.215,561.781 821.5,564C 827.772,566.262 832.939,570.095 837,575.5C 841.333,581.833 845.667,588.167 850,594.5C 850.671,595.252 851.504,595.586 852.5,595.5C 855.358,599.883 857.692,604.55 859.5,609.5C 863.974,611.811 868.64,611.978 873.5,610C 880.813,605.431 887.646,600.265 894,594.5C 896.982,592.958 900.149,591.791 903.5,591C 924.131,594.064 943.797,591.064 962.5,582C 969.328,577.085 976.328,572.419 983.5,568C 990.089,564.897 995.256,566.397 999,572.5C 1002.29,580.583 1004.96,588.916 1007,597.5C 1008.03,600.239 1009.53,602.572 1011.5,604.5C 1012.71,605.575 1014.21,606.241 1016,606.5C 1025.52,605.637 1035.02,604.637 1044.5,603.5C 1045.5,603.5 1046.5,603.5 1047.5,603.5C 1047.63,592.399 1049.79,581.733 1054,571.5C 1056.71,567.896 1060.21,565.396 1064.5,564C 1083.11,562.11 1098.61,554.276 1111,540.5C 1114.45,535.945 1117.11,530.945 1119,525.5C 1122.2,520.407 1125.87,515.741 1130,511.5C 1133.51,512.155 1136.84,513.822 1140,516.5C 1145.75,524.336 1150.75,532.669 1155,541.5C 1167.16,556.498 1180.99,558.332 1196.5,547C 1203.17,539 1209.83,531 1216.5,523C 1220.28,520.641 1224.12,519.141 1228,518.5C 1230.01,521.506 1232.01,524.506 1234,527.5C 1246.65,567.649 1273.65,584.316 1315,577.5C 1318.63,577.483 1322.47,577.65 1326.5,578C 1328.63,578.543 1330.63,579.376 1332.5,580.5C 1337.69,584.858 1343.02,589.024 1348.5,593C 1361.2,598.774 1371.7,595.94 1380,584.5C 1384.33,577.167 1388.67,569.833 1393,562.5C 1400.3,553.433 1409.8,549.1 1421.5,549.5C 1429.47,550.191 1436.14,552.857 1441.5,557.5C 1444.86,565.92 1445.36,574.587 1443,583.5C 1442.53,587.11 1441.03,590.11 1438.5,592.5 Z"/></g>
<g><path style="opacity:1" fill="#cecece" d="M 1242.5,462.5 C 1242.86,464.371 1243.86,465.871 1245.5,467C 1249.44,470.602 1254.11,472.102 1259.5,471.5C 1248.64,479.854 1241.81,490.854 1239,504.5C 1238.67,545.671 1259.17,567.338 1300.5,569.5C 1315.43,569.972 1328.1,564.972 1338.5,554.5C 1332.34,548.511 1326.01,542.677 1319.5,537C 1318.17,536.333 1316.83,536.333 1315.5,537C 1305.33,542.567 1294.99,542.901 1284.5,538C 1275.05,532.312 1272.05,524.479 1275.5,514.5C 1298.41,520.785 1321.41,526.785 1344.5,532.5C 1345.44,532.392 1346.28,532.059 1347,531.5C 1350.76,520.227 1351.26,508.894 1348.5,497.5C 1352.59,500.485 1357.09,502.819 1362,504.5C 1364.43,503.678 1366.93,503.344 1369.5,503.5C 1359.34,527.804 1348.68,551.804 1337.5,575.5C 1334.34,574.679 1331.67,573.012 1329.5,570.5C 1280.11,585.966 1248.44,568.633 1234.5,518.5C 1234.83,517.833 1235.17,517.167 1235.5,516.5C 1233.52,512.333 1230.69,509.666 1227,508.5C 1216.2,516.301 1207.53,525.968 1201,537.5C 1197.52,541.831 1193.35,545.164 1188.5,547.5C 1206.25,518.989 1224.25,490.656 1242.5,462.5 Z"/></g>
<g><path style="opacity:1" fill="#d7d7d7" d="M 716.5,505.5 C 720.325,511.143 723.658,517.143 726.5,523.5C 726.34,525.199 726.506,526.866 727,528.5C 735.667,544.5 744.333,560.5 753,576.5C 754.62,582.833 756.454,589 758.5,595C 757.53,597.565 756.196,599.732 754.5,601.5C 749.844,599.288 745.177,597.288 740.5,595.5C 742.722,595.822 744.556,595.155 746,593.5C 746.993,590.692 747.827,587.859 748.5,585C 746.929,579.291 744.762,573.791 742,568.5C 734.159,555.488 726.826,542.154 720,528.5C 717.034,521.116 715.867,513.449 716.5,505.5 Z"/></g>
<g><path style="opacity:1" fill="#eaeaea" d="M 1436.5,588.5 C 1431.66,591.421 1426.66,594.088 1421.5,596.5C 1421.37,595.761 1421.54,595.094 1422,594.5C 1429.24,590.267 1433.74,584.1 1435.5,576C 1435.92,570.026 1433.59,565.026 1428.5,561C 1420.41,557.492 1412.41,557.825 1404.5,562C 1396.97,570.217 1390.8,579.384 1386,589.5C 1375.33,604.946 1361.5,608.779 1344.5,601C 1336.89,593.529 1327.89,588.696 1317.5,586.5C 1276.22,593.099 1246.72,577.099 1229,538.5C 1225.62,534.184 1221.45,533.35 1216.5,536C 1209.86,543.973 1202.53,551.306 1194.5,558C 1176.98,566.078 1162.14,562.578 1150,547.5C 1146.6,540.535 1142.1,534.369 1136.5,529C 1132.7,528.021 1129.37,528.854 1126.5,531.5C 1122.42,536.657 1118.59,541.99 1115,547.5C 1108.62,554.545 1101.12,560.045 1092.5,564C 1082.55,566.569 1072.89,569.902 1063.5,574C 1061.38,575.731 1059.88,577.898 1059,580.5C 1057.12,587.779 1055.45,595.112 1054,602.5C 1052.05,608.452 1048.55,613.285 1043.5,617C 1028.32,624.918 1015.15,622.418 1004,609.5C 1000.17,600.161 996.333,590.827 992.5,581.5C 990.999,580.248 989.332,579.248 987.5,578.5C 985.958,579.747 984.458,579.747 983,578.5C 975.751,582.54 968.585,586.707 961.5,591C 946.301,598.177 930.468,600.344 914,597.5C 911.667,598.167 909.333,598.833 907,599.5C 906.667,599.167 906.333,598.833 906,598.5C 897.02,603.14 888.853,608.973 881.5,616C 869.871,621.092 858.538,620.425 847.5,614C 838.946,606.779 831.112,598.946 824,590.5C 823.009,591.43 822.509,592.596 822.5,594C 823.934,599.634 825.767,605.134 828,610.5C 834.642,639.331 823.642,655.331 795,658.5C 790.423,661.236 786.256,664.569 782.5,668.5C 773.624,688.21 759.957,703.71 741.5,715C 728.139,723.9 713.472,727.9 697.5,727C 680.353,721.887 672.853,710.387 675,692.5C 676.569,687.7 678.403,683.034 680.5,678.5C 681.404,679.209 681.737,680.209 681.5,681.5C 681.028,687.419 680.028,693.252 678.5,699C 681.64,718.26 692.973,726.26 712.5,723C 741.811,715.016 763.311,697.516 777,670.5C 779.783,666.049 782.95,661.883 786.5,658C 790.073,656.629 793.573,655.129 797,653.5C 797.333,653.833 797.667,654.167 798,654.5C 802.266,652.377 806.766,650.877 811.5,650C 819.451,645.936 823.784,639.436 824.5,630.5C 825.11,629.609 825.443,628.609 825.5,627.5C 825.436,623.78 824.936,620.114 824,616.5C 820.943,608.054 817.61,599.721 814,591.5C 812.802,577.413 817.802,574.747 829,583.5C 834.559,592.115 840.726,600.282 847.5,608C 857.345,616.167 868.012,617.5 879.5,612C 886,606.833 892.5,601.667 899,596.5C 899.333,596.833 899.667,597.167 900,597.5C 901.912,596.308 903.912,595.308 906,594.5C 931.581,598.767 955.081,592.933 976.5,577C 980.452,574.905 984.618,573.405 989,572.5C 990.724,572.955 992.224,573.788 993.5,575C 998.881,582.65 1002.38,591.15 1004,600.5C 1006.07,605.475 1009.24,609.642 1013.5,613C 1031.13,621.434 1043.63,616.601 1051,598.5C 1052.03,591.015 1053.7,583.682 1056,576.5C 1057.46,574.04 1059.29,571.873 1061.5,570C 1070.62,566.385 1079.95,563.385 1089.5,561C 1105.55,554.07 1117.05,542.57 1124,526.5C 1128.72,519.795 1134.06,519.129 1140,524.5C 1144.39,530.561 1148.39,536.894 1152,543.5C 1161.43,556.866 1173.93,561.033 1189.5,556C 1198.64,550.691 1205.98,543.524 1211.5,534.5C 1215.31,531.169 1219.48,528.503 1224,526.5C 1226.33,528.5 1228.67,530.5 1231,532.5C 1242.4,564.538 1265.07,581.871 1299,584.5C 1307.49,582.769 1315.16,582.102 1322,582.5C 1329.46,584.65 1335.96,588.483 1341.5,594C 1352.03,601.794 1363.03,602.461 1374.5,596C 1382.61,587.628 1389.11,578.128 1394,567.5C 1397.93,561.282 1403.43,557.115 1410.5,555C 1436.25,552.291 1444.92,563.458 1436.5,588.5 Z"/></g>
<g><path style="opacity:1" fill="#e1e1e1" d="M 928.5,517.5 C 944.001,518.837 949.168,526.837 944,541.5C 938.081,547.87 931.247,549.037 923.5,545C 916.989,538.749 915.823,531.582 920,523.5C 922.322,520.605 925.155,518.605 928.5,517.5 Z"/></g>
<g><path style="opacity:1" fill="#d9d9d9" d="M 1163.5,544.5 C 1163.61,545.117 1163.94,545.617 1164.5,546C 1172.5,546.567 1180.5,547.067 1188.5,547.5C 1193.35,545.164 1197.52,541.831 1201,537.5C 1207.53,525.968 1216.2,516.301 1227,508.5C 1230.69,509.666 1233.52,512.333 1235.5,516.5C 1235.17,517.167 1234.83,517.833 1234.5,518.5C 1248.44,568.633 1280.11,585.966 1329.5,570.5C 1331.67,573.012 1334.34,574.679 1337.5,575.5C 1336.57,577.239 1336.57,578.905 1337.5,580.5C 1347.6,585.58 1357.93,589.747 1368.5,593C 1375.05,579.351 1381.22,565.517 1387,551.5C 1389.71,542.797 1395.21,536.63 1403.5,533C 1415.65,532.072 1425.31,536.572 1432.5,546.5C 1440.64,540.189 1448.64,533.689 1456.5,527C 1457.68,525.855 1457.68,524.688 1456.5,523.5C 1459.98,527.129 1463.98,530.296 1468.5,533C 1477.39,535.461 1486.39,537.461 1495.5,539C 1507.44,543.22 1517.61,550.053 1526,559.5C 1528.78,563.015 1530.28,567.015 1530.5,571.5C 1518.9,555.519 1503.56,544.686 1484.5,539C 1466.11,536.079 1453.61,543.245 1447,560.5C 1446.33,571 1448.83,580.667 1454.5,589.5C 1455.1,595.233 1453.94,600.566 1451,605.5C 1450.18,606.823 1449.02,607.489 1447.5,607.5C 1443.75,602.997 1440.75,597.997 1438.5,592.5C 1441.03,590.11 1442.53,587.11 1443,583.5C 1445.36,574.587 1444.86,565.92 1441.5,557.5C 1436.14,552.857 1429.47,550.191 1421.5,549.5C 1409.8,549.1 1400.3,553.433 1393,562.5C 1388.67,569.833 1384.33,577.167 1380,584.5C 1371.7,595.94 1361.2,598.774 1348.5,593C 1343.02,589.024 1337.69,584.858 1332.5,580.5C 1330.63,579.376 1328.63,578.543 1326.5,578C 1322.47,577.65 1318.63,577.483 1315,577.5C 1273.65,584.316 1246.65,567.649 1234,527.5C 1232.01,524.506 1230.01,521.506 1228,518.5C 1224.12,519.141 1220.28,520.641 1216.5,523C 1209.83,531 1203.17,539 1196.5,547C 1180.99,558.332 1167.16,556.498 1155,541.5C 1150.75,532.669 1145.75,524.336 1140,516.5C 1136.84,513.822 1133.51,512.155 1130,511.5C 1125.87,515.741 1122.2,520.407 1119,525.5C 1117.11,530.945 1114.45,535.945 1111,540.5C 1098.61,554.276 1083.11,562.11 1064.5,564C 1060.21,565.396 1056.71,567.896 1054,571.5C 1049.79,581.733 1047.63,592.399 1047.5,603.5C 1046.5,603.5 1045.5,603.5 1044.5,603.5C 1045.68,601.616 1046.34,599.449 1046.5,597C 1046.11,593.165 1045.78,589.332 1045.5,585.5C 1046.51,580.482 1048.01,575.482 1050,570.5C 1052.22,566.612 1055.39,563.779 1059.5,562C 1069.92,559.25 1080.25,556.25 1090.5,553C 1094.34,550.916 1098,548.583 1101.5,546C 1110.13,537.242 1116.63,527.075 1121,515.5C 1122.51,511.115 1124.18,506.782 1126,502.5C 1127.15,503.458 1128.15,503.125 1129,501.5C 1130.33,501.5 1131.67,501.5 1133,501.5C 1137.64,507.478 1142.31,513.478 1147,519.5C 1149.55,526.276 1152.89,532.609 1157,538.5C 1158.54,541.294 1160.7,543.294 1163.5,544.5 Z"/></g>
<g><path style="opacity:1" fill="#020202" d="M 691.5,533.5 C 691.629,535.216 691.962,536.883 692.5,538.5C 695.288,547.319 697.288,556.319 698.5,565.5C 695.37,565.7 692.37,566.366 689.5,567.5C 675.702,570.3 665.202,577.633 658,589.5C 656.248,600.241 660.748,605.575 671.5,605.5C 675.761,605.589 679.761,604.922 683.5,603.5C 694.443,600.514 705.443,597.681 716.5,595C 724.523,594.343 732.523,594.51 740.5,595.5C 745.177,597.288 749.844,599.288 754.5,601.5C 768.183,612.873 774.849,627.539 774.5,645.5C 771.276,662.117 763.276,675.951 750.5,687C 734.25,700.806 715.583,709.306 694.5,712.5C 691.833,712.5 689.167,712.5 686.5,712.5C 685.57,701.921 683.903,691.588 681.5,681.5C 681.737,680.209 681.404,679.209 680.5,678.5C 680.5,677.5 680.5,676.5 680.5,675.5C 681.5,675.5 682.5,675.5 683.5,675.5C 690.964,675.367 698.297,674.367 705.5,672.5C 709.917,671.028 714.25,669.362 718.5,667.5C 725.246,663.255 730.413,657.588 734,650.5C 735.875,639.372 731.208,633.038 720,631.5C 705.483,634.42 690.983,637.586 676.5,641C 648.017,643.976 630.017,631.81 622.5,604.5C 622.254,598.441 622.587,592.441 623.5,586.5C 626.178,572.981 632.844,561.814 643.5,553C 654.243,545.034 665.909,538.868 678.5,534.5C 682.785,533.705 687.119,533.372 691.5,533.5 Z"/></g>
<g><path style="opacity:1" fill="#e6e6e6" d="M 678.5,534.5 C 665.909,538.868 654.243,545.034 643.5,553C 632.844,561.814 626.178,572.981 623.5,586.5C 615.21,609.491 620.877,628.658 640.5,644C 650.698,650.508 661.865,653.341 674,652.5C 682.874,652.351 691.707,651.685 700.5,650.5C 703.924,650.482 707.257,650.982 710.5,652C 716.069,655.514 716.902,660.014 713,665.5C 710.521,667.966 708.021,670.299 705.5,672.5C 698.297,674.367 690.964,675.367 683.5,675.5C 685.57,673.036 687.404,670.369 689,667.5C 689.684,666.216 689.517,665.049 688.5,664C 676.545,662.34 664.711,660.174 653,657.5C 638.385,653.603 627.052,644.936 619,631.5C 607.206,604.855 610.873,580.521 630,558.5C 643.071,544.214 659.238,536.214 678.5,534.5 Z"/></g>
<g><path style="opacity:1" fill="#020202" d="M 1530.5,571.5 C 1529.89,573.775 1528.56,575.441 1526.5,576.5C 1520.88,579.472 1515.54,582.805 1510.5,586.5C 1509.5,586.586 1508.67,586.252 1508,585.5C 1504.55,578.386 1499.39,572.886 1492.5,569C 1488.05,565.598 1483.88,565.765 1480,569.5C 1479.33,571.167 1479.33,572.833 1480,574.5C 1484.29,580.458 1488.96,586.124 1494,591.5C 1507.27,610.759 1504.77,627.592 1486.5,642C 1474.71,646.814 1463.04,646.481 1451.5,641C 1445.69,638.006 1440.02,634.839 1434.5,631.5C 1431.46,628.453 1428.12,625.787 1424.5,623.5C 1421.16,618.825 1417.83,614.158 1414.5,609.5C 1413.86,606.779 1413.36,604.112 1413,601.5C 1415.61,599.444 1418.45,597.777 1421.5,596.5C 1426.66,594.088 1431.66,591.421 1436.5,588.5C 1437.67,589.514 1438.34,590.847 1438.5,592.5C 1440.75,597.997 1443.75,602.997 1447.5,607.5C 1451.57,612.702 1456.91,614.869 1463.5,614C 1466.19,611.347 1467.03,608.18 1466,604.5C 1462.3,599.315 1458.47,594.315 1454.5,589.5C 1448.83,580.667 1446.33,571 1447,560.5C 1453.61,543.245 1466.11,536.079 1484.5,539C 1503.56,544.686 1518.9,555.519 1530.5,571.5 Z"/></g>
<g><path style="opacity:1" fill="#c7c7c7" d="M 995.5,472.5 C 999.821,506.373 1004.15,540.373 1008.5,574.5C 1006.49,569.504 1004.32,564.504 1002,559.5C 996.509,553.323 990.675,552.489 984.5,557C 973.606,568.55 960.606,576.884 945.5,582C 938.894,583.626 932.228,584.792 925.5,585.5C 915.249,583.704 904.916,583.204 894.5,584C 892.842,585.663 890.842,586.496 888.5,586.5C 879.409,571.991 871.076,556.991 863.5,541.5C 867.108,540.241 869.441,537.908 870.5,534.5C 879.946,570.395 903.113,585.062 940,578.5C 964.722,574.321 981.722,560.654 991,537.5C 995.56,519.876 992.393,503.876 981.5,489.5C 982.873,489.657 984.207,489.49 985.5,489C 986.469,487.242 987.636,486.742 989,487.5C 992.411,482.96 994.577,477.96 995.5,472.5 Z"/></g>
<g><path style="opacity:1" fill="#c1c1c1" d="M 1071.5,550.5 C 1059.8,551.682 1050.47,557.016 1043.5,566.5C 1041.63,558.727 1040.79,550.727 1041,542.5C 1050.23,548.517 1060.4,551.184 1071.5,550.5 Z"/></g>
<g><path style="opacity:1" fill="#cacaca" d="M 852.5,595.5 C 851.504,595.586 850.671,595.252 850,594.5C 845.667,588.167 841.333,581.833 837,575.5C 832.939,570.095 827.772,566.262 821.5,564C 807.215,561.781 800.215,567.948 800.5,582.5C 793.436,572.273 794.103,562.439 802.5,553C 812.346,546.38 821.513,547.213 830,555.5C 837.765,568.699 845.265,582.032 852.5,595.5 Z"/></g>
<g><path style="opacity:1" fill="#dadada" d="M 1008.5,574.5 C 1009.72,584.471 1010.72,594.471 1011.5,604.5C 1009.53,602.572 1008.03,600.239 1007,597.5C 1004.96,588.916 1002.29,580.583 999,572.5C 995.256,566.397 990.089,564.897 983.5,568C 976.328,572.419 969.328,577.085 962.5,582C 943.797,591.064 924.131,594.064 903.5,591C 900.149,591.791 896.982,592.958 894,594.5C 887.646,600.265 880.813,605.431 873.5,610C 868.64,611.978 863.974,611.811 859.5,609.5C 870.201,604.294 880.535,598.461 890.5,592C 889.68,590.2 889.014,588.366 888.5,586.5C 890.842,586.496 892.842,585.663 894.5,584C 904.916,583.204 915.249,583.704 925.5,585.5C 932.228,584.792 938.894,583.626 945.5,582C 960.606,576.884 973.606,568.55 984.5,557C 990.675,552.489 996.509,553.323 1002,559.5C 1004.32,564.504 1006.49,569.504 1008.5,574.5 Z"/></g>
<g><path style="opacity:1" fill="#cecece" d="M 689.5,567.5 C 689.245,570.016 688.411,572.35 687,574.5C 682.513,579.476 678.513,584.809 675,590.5C 672.551,598.52 675.384,602.853 683.5,603.5C 679.761,604.922 675.761,605.589 671.5,605.5C 660.748,605.575 656.248,600.241 658,589.5C 665.202,577.633 675.702,570.3 689.5,567.5 Z"/></g>
<g><path style="opacity:1" fill="#dcdcdc" d="M 1526.5,576.5 C 1526.67,580.08 1526.67,583.247 1526.5,586C 1527.8,588.761 1528.96,591.595 1530,594.5C 1530.33,594.167 1530.67,593.833 1531,593.5C 1531.32,595.301 1531.98,595.634 1533,594.5C 1536.24,595.572 1539.41,596.572 1542.5,597.5C 1537.71,598.486 1533.04,599.986 1528.5,602C 1524.6,604.751 1520.6,607.251 1516.5,609.5C 1511.75,609.428 1508.42,607.261 1506.5,603C 1506.83,602 1507.17,601 1507.5,600C 1506.83,599.667 1506.17,599.333 1505.5,599C 1507.38,594.505 1509.04,590.338 1510.5,586.5C 1515.54,582.805 1520.88,579.472 1526.5,576.5 Z"/></g>
<g><path style="opacity:1" fill="#dbdbdb" d="M 623.5,586.5 C 622.587,592.441 622.254,598.441 622.5,604.5C 624.157,625.609 634.657,639.609 654,646.5C 658.597,648.086 663.264,649.419 668,650.5C 679.451,649.299 691.117,647.966 703,646.5C 718.062,646.38 723.229,653.38 718.5,667.5C 714.25,669.362 709.917,671.028 705.5,672.5C 708.021,670.299 710.521,667.966 713,665.5C 716.902,660.014 716.069,655.514 710.5,652C 707.257,650.982 703.924,650.482 700.5,650.5C 691.707,651.685 682.874,652.351 674,652.5C 661.865,653.341 650.698,650.508 640.5,644C 620.877,628.658 615.21,609.491 623.5,586.5 Z"/></g>
<g><path style="opacity:1" fill="#c5c5c5" d="M 726.5,523.5 C 747.738,560.97 768.738,598.637 789.5,636.5C 786.21,635.742 783.044,635.742 780,636.5C 776.627,638.676 774.794,641.676 774.5,645.5C 774.849,627.539 768.183,612.873 754.5,601.5C 756.196,599.732 757.53,597.565 758.5,595C 756.454,589 754.62,582.833 753,576.5C 744.333,560.5 735.667,544.5 727,528.5C 726.506,526.866 726.34,525.199 726.5,523.5 Z"/></g>
<g><path style="opacity:1" fill="#c3c3c3" d="M 1454.5,589.5 C 1458.47,594.315 1462.3,599.315 1466,604.5C 1467.03,608.18 1466.19,611.347 1463.5,614C 1456.91,614.869 1451.57,612.702 1447.5,607.5C 1449.02,607.489 1450.18,606.823 1451,605.5C 1453.94,600.566 1455.1,595.233 1454.5,589.5 Z"/></g>
<g><path style="opacity:1" fill="#020202" d="M 1542.5,597.5 C 1565.26,594.896 1583.93,602.23 1598.5,619.5C 1605.23,627.628 1609.23,636.961 1610.5,647.5C 1611.32,665.051 1605.32,679.717 1592.5,691.5C 1589.75,688.737 1586.75,686.403 1583.5,684.5C 1568.17,670.512 1552.51,656.845 1536.5,643.5C 1531.79,647.798 1529.96,653.131 1531,659.5C 1533.35,667.222 1537.85,673.222 1544.5,677.5C 1545.68,678.504 1547.02,679.338 1548.5,680C 1554.12,681.052 1559.78,681.718 1565.5,682C 1569.09,690.293 1572.76,698.46 1576.5,706.5C 1571.81,708.579 1566.81,709.912 1561.5,710.5C 1539.88,708.938 1522.38,699.605 1509,682.5C 1504.9,676.363 1502.07,669.696 1500.5,662.5C 1497.17,647.072 1499.67,632.739 1508,619.5C 1510.67,616 1513.5,612.667 1516.5,609.5C 1520.6,607.251 1524.6,604.751 1528.5,602C 1533.04,599.986 1537.71,598.486 1542.5,597.5 Z"/></g>
<g><path style="opacity:1" fill="#fdd272" d="M 487.5,620.5 C 487.167,620.5 486.833,620.5 486.5,620.5C 478.866,612.697 471.366,604.697 464,596.5C 463.399,595.035 463.899,594.035 465.5,593.5C 472.602,602.714 479.936,611.714 487.5,620.5 Z"/></g>
<g><path style="opacity:1" fill="#e1e1e1" d="M 1414.5,609.5 C 1417.83,614.158 1421.16,618.825 1424.5,623.5C 1428.54,633.039 1435.2,640.206 1444.5,645C 1449.26,647.587 1454.26,649.587 1459.5,651C 1468.43,652.104 1477.1,653.104 1485.5,654C 1487.5,655.333 1489.5,656.667 1491.5,658C 1498.83,668.668 1505.33,679.835 1511,691.5C 1519.27,701.448 1529.44,708.615 1541.5,713C 1548.69,715.435 1555.36,714.602 1561.5,710.5C 1566.81,709.912 1571.81,708.579 1576.5,706.5C 1576.3,704.61 1576.96,703.11 1578.5,702C 1585.34,697.747 1592.34,693.747 1599.5,690C 1612.52,678.027 1616.18,663.861 1610.5,647.5C 1609.23,636.961 1605.23,627.628 1598.5,619.5C 1606.45,626.015 1611.95,634.349 1615,644.5C 1620.54,663.831 1616.04,680.331 1601.5,694C 1589.1,700.066 1578.1,708.066 1568.5,718C 1559.59,722.712 1550.26,723.712 1540.5,721C 1518.42,713.258 1503.26,698.425 1495,676.5C 1492.43,671.846 1489.26,667.679 1485.5,664C 1482.91,662.803 1480.24,661.803 1477.5,661C 1459.13,660.306 1442.8,654.306 1428.5,643C 1417.54,634.264 1412.87,623.098 1414.5,609.5 Z"/></g>
<g><path style="opacity:1" fill="#d3d3d3" d="M 1424.5,623.5 C 1428.12,625.787 1431.46,628.453 1434.5,631.5C 1435.2,633.716 1436.54,635.549 1438.5,637C 1445.29,642.441 1452.95,646.108 1461.5,648C 1470.97,648.565 1480.3,649.899 1489.5,652C 1493.69,655.03 1497.36,658.53 1500.5,662.5C 1502.07,669.696 1504.9,676.363 1509,682.5C 1522.38,699.605 1539.88,708.938 1561.5,710.5C 1555.36,714.602 1548.69,715.435 1541.5,713C 1529.44,708.615 1519.27,701.448 1511,691.5C 1505.33,679.835 1498.83,668.668 1491.5,658C 1489.5,656.667 1487.5,655.333 1485.5,654C 1477.1,653.104 1468.43,652.104 1459.5,651C 1454.26,649.587 1449.26,647.587 1444.5,645C 1435.2,640.206 1428.54,633.039 1424.5,623.5 Z"/></g>
<g><path style="opacity:1" fill="#c1c1c1" d="M 1557.5,623.5 C 1571.62,622.799 1579.95,629.299 1582.5,643C 1582.58,646.333 1581.91,649.5 1580.5,652.5C 1579.64,653.583 1578.64,653.749 1577.5,653C 1568.95,644.814 1560.12,636.981 1551,629.5C 1550.38,628.551 1550.55,627.718 1551.5,627C 1553.43,625.541 1555.43,624.375 1557.5,623.5 Z"/></g>
<g><path style="opacity:1" fill="#feeabf" d="M 486.5,620.5 C 486.833,620.5 487.167,620.5 487.5,620.5C 491.045,622.857 493.545,625.857 495,629.5C 491.962,626.631 489.129,623.631 486.5,620.5 Z"/></g>
<g><path style="opacity:1" fill="#fccf69" d="M 382.5,621.5 C 383.991,623.871 384.991,626.538 385.5,629.5C 387.657,630.79 389.99,631.624 392.5,632C 389.99,633.09 387.49,634.257 385,635.5C 383.318,644.57 382.151,644.237 381.5,634.5C 371.297,633.164 371.131,631.497 381,629.5C 382.079,626.937 382.579,624.271 382.5,621.5 Z"/></g>
<g><path style="opacity:1" fill="#cdcdcd" d="M 622.5,604.5 C 630.017,631.81 648.017,643.976 676.5,641C 690.983,637.586 705.483,634.42 720,631.5C 731.208,633.038 735.875,639.372 734,650.5C 730.413,657.588 725.246,663.255 718.5,667.5C 723.229,653.38 718.062,646.38 703,646.5C 691.117,647.966 679.451,649.299 668,650.5C 663.264,649.419 658.597,648.086 654,646.5C 634.657,639.609 624.157,625.609 622.5,604.5 Z"/></g>
<g><path style="opacity:1" fill="#dedede" d="M 824.5,630.5 C 823.784,639.436 819.451,645.936 811.5,650C 806.766,650.877 802.266,652.377 798,654.5C 797.667,654.167 797.333,653.833 797,653.5C 793.573,655.129 790.073,656.629 786.5,658C 782.95,661.883 779.783,666.049 777,670.5C 763.311,697.516 741.811,715.016 712.5,723C 692.973,726.26 681.64,718.26 678.5,699C 680.028,693.252 681.028,687.419 681.5,681.5C 683.903,691.588 685.57,701.921 686.5,712.5C 689.167,712.5 691.833,712.5 694.5,712.5C 698.238,714.817 702.405,716.15 707,716.5C 727.749,712.457 745.083,702.457 759,686.5C 766.375,674.25 773.875,662.083 781.5,650C 783.167,649 784.833,648 786.5,647C 790.025,646.821 793.359,646.321 796.5,645.5C 805.542,639.979 814.876,634.979 824.5,630.5 Z"/></g>
<g><path style="opacity:1" fill="#c9c9c9" d="M 1510.5,586.5 C 1509.04,590.338 1507.38,594.505 1505.5,599C 1506.17,599.333 1506.83,599.667 1507.5,600C 1507.17,601 1506.83,602 1506.5,603C 1508.42,607.261 1511.75,609.428 1516.5,609.5C 1513.5,612.667 1510.67,616 1508,619.5C 1499.67,632.739 1497.17,647.072 1500.5,662.5C 1497.36,658.53 1493.69,655.03 1489.5,652C 1480.3,649.899 1470.97,648.565 1461.5,648C 1452.95,646.108 1445.29,642.441 1438.5,637C 1436.54,635.549 1435.2,633.716 1434.5,631.5C 1440.02,634.839 1445.69,638.006 1451.5,641C 1463.04,646.481 1474.71,646.814 1486.5,642C 1504.77,627.592 1507.27,610.759 1494,591.5C 1488.96,586.124 1484.29,580.458 1480,574.5C 1479.33,572.833 1479.33,571.167 1480,569.5C 1483.88,565.765 1488.05,565.598 1492.5,569C 1499.39,572.886 1504.55,578.386 1508,585.5C 1508.67,586.252 1509.5,586.586 1510.5,586.5 Z"/></g>
<g><path style="opacity:1" fill="#d0d0d0" d="M 789.5,636.5 C 791.241,638.977 792.741,641.644 794,644.5C 794.671,645.252 795.504,645.586 796.5,645.5C 793.359,646.321 790.025,646.821 786.5,647C 784.833,648 783.167,649 781.5,650C 773.875,662.083 766.375,674.25 759,686.5C 745.083,702.457 727.749,712.457 707,716.5C 702.405,716.15 698.238,714.817 694.5,712.5C 715.583,709.306 734.25,700.806 750.5,687C 763.276,675.951 771.276,662.117 774.5,645.5C 774.794,641.676 776.627,638.676 780,636.5C 783.044,635.742 786.21,635.742 789.5,636.5 Z"/></g>
<g><path style="opacity:1" fill="#c5c5c5" d="M 1583.5,684.5 C 1576.33,685.26 1570.49,682.927 1566,677.5C 1564.04,672.41 1561.21,667.91 1557.5,664C 1549.99,661.483 1545.33,664.15 1543.5,672C 1543.94,673.825 1544.28,675.658 1544.5,677.5C 1537.85,673.222 1533.35,667.222 1531,659.5C 1529.96,653.131 1531.79,647.798 1536.5,643.5C 1552.51,656.845 1568.17,670.512 1583.5,684.5 Z"/></g>
<g><path style="opacity:1" fill="#d0d0d0" d="M 1610.5,647.5 C 1616.18,663.861 1612.52,678.027 1599.5,690C 1592.34,693.747 1585.34,697.747 1578.5,702C 1576.96,703.11 1576.3,704.61 1576.5,706.5C 1572.76,698.46 1569.09,690.293 1565.5,682C 1559.78,681.718 1554.12,681.052 1548.5,680C 1547.02,679.338 1545.68,678.504 1544.5,677.5C 1544.28,675.658 1543.94,673.825 1543.5,672C 1545.33,664.15 1549.99,661.483 1557.5,664C 1561.21,667.91 1564.04,672.41 1566,677.5C 1570.49,682.927 1576.33,685.26 1583.5,684.5C 1586.75,686.403 1589.75,688.737 1592.5,691.5C 1605.32,679.717 1611.32,665.051 1610.5,647.5 Z"/></g>
<g><path style="opacity:1" fill="#fdcf68" d="M 417.5,665.5 C 419.483,668.799 420.483,672.466 420.5,676.5C 435.125,678.187 435.125,679.853 420.5,681.5C 419.828,685.188 418.995,688.855 418,692.5C 416.824,688.973 415.658,685.473 414.5,682C 399.922,680.086 399.922,678.086 414.5,676C 415.435,672.497 416.435,668.997 417.5,665.5 Z"/></g>
<g><path style="opacity:1" fill="#ffb294" d="M 499.5,705.5 C 517.659,704.503 535.992,704.17 554.5,704.5C 554.828,715.014 554.494,725.347 553.5,735.5C 553.5,735.167 553.5,734.833 553.5,734.5C 553.5,724.833 553.5,715.167 553.5,705.5C 535.833,705.5 518.167,705.5 500.5,705.5C 500.167,705.5 499.833,705.5 499.5,705.5 Z"/></g>
<g><path style="opacity:1" fill="#ff8758" d="M 500.5,705.5 C 518.167,705.5 535.833,705.5 553.5,705.5C 553.5,715.167 553.5,724.833 553.5,734.5C 535.833,734.5 518.167,734.5 500.5,734.5C 500.5,724.833 500.5,715.167 500.5,705.5 Z"/></g>
<g><path style="opacity:1" fill="#ff9e79" d="M 499.5,705.5 C 499.833,705.5 500.167,705.5 500.5,705.5C 500.5,715.167 500.5,724.833 500.5,734.5C 518.167,734.5 535.833,734.5 553.5,734.5C 553.5,734.833 553.5,735.167 553.5,735.5C 535.5,735.5 517.5,735.5 499.5,735.5C 499.5,725.5 499.5,715.5 499.5,705.5 Z"/></g>
</svg>
