<?xml version="1.0" encoding="UTF-8"?>
<!DOCTYPE svg PUBLIC "-//W3C//DTD SVG 1.1//EN" "http://www.w3.org/Graphics/SVG/1.1/DTD/svg11.dtd">
<svg xmlns="http://www.w3.org/2000/svg" version="1.1" width="666px" height="375px" style="shape-rendering:geometricPrecision; text-rendering:geometricPrecision; image-rendering:optimizeQuality; fill-rule:evenodd; clip-rule:evenodd" xmlns:xlink="http://www.w3.org/1999/xlink">
<g><path style="opacity:0.851" fill="#f6db92" d="M 242.5,123.5 C 241.21,122.942 240.377,121.942 240,120.5C 239.292,121.381 238.458,122.047 237.5,122.5C 239.961,114.334 241.627,114.667 242.5,123.5 Z"/></g>
<g><path style="opacity:0.102" fill="#f5dca3" d="M 204.5,127.5 C 202.488,126.986 200.488,126.82 198.5,127C 199.056,127.383 199.389,127.883 199.5,128.5C 197.956,128.297 196.622,127.63 195.5,126.5C 194.893,126.624 194.56,126.957 194.5,127.5C 191.358,126.866 188.524,125.533 186,123.5C 185.5,123.833 185,124.167 184.5,124.5C 185.309,126.071 185.643,127.738 185.5,129.5C 184.696,127.811 183.696,126.145 182.5,124.5C 181.712,125.77 180.712,126.77 179.5,127.5C 179.421,126.07 179.754,124.736 180.5,123.5C 179.3,122.708 177.967,122.708 176.5,123.5C 176.611,122.883 176.944,122.383 177.5,122C 185.667,121.688 193.667,122.688 201.5,125C 202.571,125.852 203.571,126.685 204.5,127.5 Z"/></g>
<g><path style="opacity:0.486" fill="#f7e4ad" d="M 234.5,124.5 C 234.196,125.15 233.863,125.817 233.5,126.5C 235.184,127.15 236.517,128.15 237.5,129.5C 234.533,129.011 231.867,127.845 229.5,126C 230.905,124.731 232.571,124.231 234.5,124.5 Z"/></g>
<g><path style="opacity:1" fill="#f6cf6e" d="M 242.5,123.5 C 243.167,123.833 243.833,124.167 244.5,124.5C 244.611,125.117 244.944,125.617 245.5,126C 244.177,126.816 243.511,127.983 243.5,129.5C 242.833,129.5 242.5,129.833 242.5,130.5C 242.5,130.833 242.5,131.167 242.5,131.5C 241.662,131.842 241.328,132.508 241.5,133.5C 240.391,133.443 239.391,133.11 238.5,132.5C 237.89,131.609 237.557,130.609 237.5,129.5C 236.517,128.15 235.184,127.15 233.5,126.5C 233.863,125.817 234.196,125.15 234.5,124.5C 236.027,124.573 237.027,123.906 237.5,122.5C 238.458,122.047 239.292,121.381 240,120.5C 240.377,121.942 241.21,122.942 242.5,123.5 Z"/></g>
<g><path style="opacity:0.773" fill="#f7e1ab" d="M 244.5,124.5 C 246.167,124.5 247.833,124.5 249.5,124.5C 249.719,125.675 249.386,126.675 248.5,127.5C 246.974,127.994 245.641,128.661 244.5,129.5C 244.167,129.5 243.833,129.5 243.5,129.5C 243.511,127.983 244.177,126.816 245.5,126C 244.944,125.617 244.611,125.117 244.5,124.5 Z"/></g>
<g><path style="opacity:0.941" fill="#f6d489" d="M 176.5,123.5 C 177.967,122.708 179.3,122.708 180.5,123.5C 179.754,124.736 179.421,126.07 179.5,127.5C 178.5,131.501 177.5,135.501 176.5,139.5C 175.833,139.5 175.167,139.5 174.5,139.5C 175.674,134.848 176.507,130.182 177,125.5C 175.275,126.464 173.441,127.131 171.5,127.5C 171.5,127.167 171.5,126.833 171.5,126.5C 172.183,125.356 171.849,125.356 170.5,126.5C 164.594,128.61 159.594,131.943 155.5,136.5C 155.822,132.561 154.489,131.728 151.5,134C 150.152,136.01 148.818,138.01 147.5,140C 148.056,141.011 148.722,141.844 149.5,142.5C 148.162,144.868 146.828,147.202 145.5,149.5C 145.877,146.475 146.044,143.475 146,140.5C 144.36,142.579 143.194,144.912 142.5,147.5C 142.043,148.298 141.376,148.631 140.5,148.5C 146.664,134.185 157.498,125.518 173,122.5C 174.256,122.648 175.423,122.982 176.5,123.5 Z"/></g>
<g><path style="opacity:0.227" fill="#fdeac4" d="M 170.5,126.5 C 170.833,126.5 171.167,126.5 171.5,126.5C 171.5,126.833 171.5,127.167 171.5,127.5C 171.027,128.906 170.027,129.573 168.5,129.5C 169.167,128.5 169.833,127.5 170.5,126.5 Z"/></g>
<g><path style="opacity:0.8" fill="#f7d281" d="M 204.5,127.5 C 211.416,130.42 216.75,135.087 220.5,141.5C 220.785,143.288 220.452,144.955 219.5,146.5C 218.717,144.712 217.384,143.712 215.5,143.5C 211.677,136.817 206.343,131.817 199.5,128.5C 199.389,127.883 199.056,127.383 198.5,127C 200.488,126.82 202.488,126.986 204.5,127.5 Z"/></g>
<g><path style="opacity:0.235" fill="#fceedf" d="M 243.5,129.5 C 243.833,129.5 244.167,129.5 244.5,129.5C 247.5,129.167 248.833,130.5 248.5,133.5C 246.708,133.366 245.042,133.699 243.5,134.5C 242.89,133.609 242.557,132.609 242.5,131.5C 242.5,131.167 242.5,130.833 242.5,130.5C 243.167,130.5 243.5,130.167 243.5,129.5 Z"/></g>
<g><path style="opacity:0.071" fill="#f6edcd" d="M 238.5,132.5 C 239.391,133.11 240.391,133.443 241.5,133.5C 240.395,137.171 239.395,136.838 238.5,132.5 Z"/></g>
<g><path style="opacity:0.961" fill="#f2d88b" d="M 167.5,130.5 C 166.313,134.996 163.98,138.663 160.5,141.5C 161.589,136.978 163.922,133.311 167.5,130.5 Z"/></g>
<g><path style="opacity:0.408" fill="#f7dca6" d="M 198.5,131.5 C 199.208,133.378 200.374,135.045 202,136.5C 202.49,137.793 202.657,139.127 202.5,140.5C 201.792,138.622 200.626,136.955 199,135.5C 198.51,134.207 198.343,132.873 198.5,131.5 Z"/></g>
<g><path style="opacity:0.251" fill="#f7ebc0" d="M 248.5,133.5 C 249.391,134.261 250.058,135.261 250.5,136.5C 249.147,137.685 247.98,139.019 247,140.5C 245.833,138.667 244.333,137.167 242.5,136C 243.056,135.617 243.389,135.117 243.5,134.5C 245.042,133.699 246.708,133.366 248.5,133.5 Z"/></g>
<g><path style="opacity:0.996" fill="#f6d076" d="M 155.5,136.5 C 153.139,138.194 151.139,140.194 149.5,142.5C 148.722,141.844 148.056,141.011 147.5,140C 148.818,138.01 150.152,136.01 151.5,134C 154.489,131.728 155.822,132.561 155.5,136.5 Z"/></g>
<g><path style="opacity:1" fill="#fbcc61" d="M 194.5,127.5 C 195.473,129.139 196.806,130.473 198.5,131.5C 198.343,132.873 198.51,134.207 199,135.5C 200.626,136.955 201.792,138.622 202.5,140.5C 204.008,142.181 205.008,144.181 205.5,146.5C 205.182,151.032 205.515,155.366 206.5,159.5C 205.418,161.339 204.585,163.339 204,165.5C 203.828,169.871 203.328,174.204 202.5,178.5C 201.175,175.671 199.175,175.004 196.5,176.5C 194.142,181.201 192.975,186.201 193,191.5C 192.081,194.402 191.248,194.735 190.5,192.5C 190.704,189.482 191.037,186.482 191.5,183.5C 192.66,170.673 192.827,157.673 192,144.5C 190.979,142.03 189.812,139.696 188.5,137.5C 187.752,134.83 186.752,132.163 185.5,129.5C 185.643,127.738 185.309,126.071 184.5,124.5C 185,124.167 185.5,123.833 186,123.5C 188.524,125.533 191.358,126.866 194.5,127.5 Z"/></g>
<g><path style="opacity:0.108" fill="#fdecae" d="M 174.5,139.5 C 175.167,139.5 175.833,139.5 176.5,139.5C 176.024,143.993 175.358,148.327 174.5,152.5C 174.5,149.5 174.5,146.5 174.5,143.5C 174.5,142.167 174.5,140.833 174.5,139.5 Z"/></g>
<g><path style="opacity:0.725" fill="#f6dea7" d="M 220.5,141.5 C 222.742,143.452 223.076,145.785 221.5,148.5C 218.474,148.163 216.474,146.496 215.5,143.5C 217.384,143.712 218.717,144.712 219.5,146.5C 220.452,144.955 220.785,143.288 220.5,141.5 Z"/></g>
<g><path style="opacity:0.928" fill="#f8f8f8" d="M 387.5,151.5 C 392.58,151.25 397.58,151.75 402.5,153C 404.265,158.96 406.432,164.793 409,170.5C 412.088,165.325 414.921,159.992 417.5,154.5C 422.493,153.578 427.493,153.745 432.5,155C 432.957,155.414 433.291,155.914 433.5,156.5C 427.199,167.298 420.699,177.965 414,188.5C 407.916,192.074 403.249,190.741 400,184.5C 396.479,175.305 392.479,166.305 388,157.5C 387.505,155.527 387.338,153.527 387.5,151.5 Z"/></g>
<g><path style="opacity:0.557" fill="#f6d586" d="M 188.5,137.5 C 189.812,139.696 190.979,142.03 192,144.5C 192.827,157.673 192.66,170.673 191.5,183.5C 191.5,178.5 191.5,173.5 191.5,168.5C 191.114,158.091 190.114,147.757 188.5,137.5 Z"/></g>
<g><path style="opacity:0.325" fill="#fde9b7" d="M 139.5,150.5 C 139.706,153.495 139.04,156.162 137.5,158.5C 137.565,155.572 138.232,152.905 139.5,150.5 Z"/></g>
<g><path style="opacity:0.942" fill="#f8f8f8" d="M 306.5,197.5 C 306.5,196.833 306.167,196.5 305.5,196.5C 305.5,195.833 305.167,195.5 304.5,195.5C 303.833,195.5 303.5,195.167 303.5,194.5C 304.833,194.167 304.833,193.833 303.5,193.5C 302.25,193.423 301.417,192.756 301,191.5C 300.667,193.167 300.333,194.833 300,196.5C 299.853,193.429 299.02,190.596 297.5,188C 298.066,187.005 298.733,186.172 299.5,185.5C 302.71,166.49 314.377,159.323 334.5,164C 339.813,166.992 343.313,171.492 345,177.5C 345.566,171.756 345.066,166.09 343.5,160.5C 343.57,159.228 343.903,158.062 344.5,157C 349.14,154.85 353.64,155.016 358,157.5C 360.95,153.36 364.95,151.693 370,152.5C 376.25,152.125 381.25,154.458 385,159.5C 389.667,167.833 389.667,176.167 385,184.5C 383.127,186.709 380.96,188.542 378.5,190C 372.859,191.583 367.192,191.917 361.5,191C 362.302,196.1 362.969,201.266 363.5,206.5C 363.43,207.772 363.097,208.938 362.5,210C 358.459,210.827 354.459,210.66 350.5,209.5C 348.116,199.647 346.616,189.647 346,179.5C 344.796,189.437 339.63,196.271 330.5,200C 322.006,203.81 314.006,202.977 306.5,197.5 Z M 364.5,164.5 C 372.086,164.94 374.919,168.94 373,176.5C 366.197,182.494 361.697,181.16 359.5,172.5C 359.546,168.793 361.213,166.127 364.5,164.5 Z M 320.5,174.5 C 328.4,174.234 331.233,177.901 329,185.5C 324.205,191.089 319.872,190.756 316,184.5C 314.571,179.783 316.071,176.45 320.5,174.5 Z"/></g>
<g><path style="opacity:0.647" fill="#f7de9c" d="M 205.5,146.5 C 206.895,150.591 207.562,154.924 207.5,159.5C 207.167,159.5 206.833,159.5 206.5,159.5C 205.515,155.366 205.182,151.032 205.5,146.5 Z"/></g>
<g><path style="opacity:0.982" fill="#f8d47d" d="M 145.5,149.5 C 142.861,158.439 142.861,167.439 145.5,176.5C 144.504,176.586 143.671,176.252 143,175.5C 142.151,170.102 140.984,164.769 139.5,159.5C 138.511,163.107 138.177,166.774 138.5,170.5C 138.167,170.5 137.833,170.5 137.5,170.5C 136.167,166.5 136.167,162.5 137.5,158.5C 139.04,156.162 139.706,153.495 139.5,150.5C 139.328,149.508 139.662,148.842 140.5,148.5C 141.376,148.631 142.043,148.298 142.5,147.5C 143.194,144.912 144.36,142.579 146,140.5C 146.044,143.475 145.877,146.475 145.5,149.5 Z"/></g>
<g><path style="opacity:0.734" fill="#f5d282" d="M 174.5,143.5 C 174.5,146.5 174.5,149.5 174.5,152.5C 174.5,160.167 174.5,167.833 174.5,175.5C 174.5,179.167 174.5,182.833 174.5,186.5C 173.883,186.389 173.383,186.056 173,185.5C 172.833,178.5 172.667,171.5 172.5,164.5C 172.503,157.133 173.17,150.133 174.5,143.5 Z"/></g>
<g><path style="opacity:0.906" fill="#f8f8f8" d="M 468.5,184.5 C 467.584,184.982 466.584,185.315 465.5,185.5C 457.731,183.748 450.064,181.748 442.5,179.5C 442.799,182.642 444.466,184.809 447.5,186C 451.31,186.415 454.977,186.082 458.5,185C 462.368,187.162 463.868,190.328 463,194.5C 455.484,198.994 447.65,199.494 439.5,196C 427.382,187.445 425.382,176.945 433.5,164.5C 443.586,156.652 453.753,156.652 464,164.5C 469.235,170.298 470.735,176.965 468.5,184.5 Z M 447.5,168.5 C 450.99,168.245 453.657,169.578 455.5,172.5C 452.21,173.244 449.21,172.411 446.5,170C 447.056,169.617 447.389,169.117 447.5,168.5 Z"/></g>
<g><path style="opacity:0.18" fill="#f3d590" d="M 160.5,141.5 C 160.618,145.695 159.785,149.695 158,153.5C 157.833,156.667 157.667,159.833 157.5,163C 157.584,166.693 158.25,170.193 159.5,173.5C 158.754,174.736 158.421,176.07 158.5,177.5C 157.71,176.391 157.21,175.058 157,173.5C 155.528,162.387 156.694,151.721 160.5,141.5 Z"/></g>
<g><path style="opacity:0.173" fill="#f0ddae" d="M 222.5,163.5 C 223.274,162.853 224.274,162.52 225.5,162.5C 227.03,162.64 228.03,163.307 228.5,164.5C 226.565,163.85 224.565,163.517 222.5,163.5 Z"/></g>
<g><path style="opacity:0.941" fill="#f9f9f9" d="M 299.5,185.5 C 298.733,186.172 298.066,187.005 297.5,188C 299.02,190.596 299.853,193.429 300,196.5C 300.333,194.833 300.667,193.167 301,191.5C 301.417,192.756 302.25,193.423 303.5,193.5C 303.5,193.833 303.5,194.167 303.5,194.5C 303.5,195.167 303.833,195.5 304.5,195.5C 305.167,195.5 305.5,195.833 305.5,196.5C 306.167,196.5 306.5,196.833 306.5,197.5C 310.233,206.954 306.9,211.12 296.5,210C 293.207,204.582 290.04,199.082 287,193.5C 281.781,189.017 278.281,190.184 276.5,197C 278.905,203.542 282.072,209.709 286,215.5C 286.667,216.5 286.667,217.5 286,218.5C 282.638,222.609 278.471,223.942 273.5,222.5C 271.725,219.262 269.725,216.262 267.5,213.5C 267.672,212.508 267.338,211.842 266.5,211.5C 261.038,199.848 254.871,188.515 248,177.5C 246.568,174.998 246.402,172.498 247.5,170C 250.717,167.216 254.384,165.882 258.5,166C 261.939,173.044 265.772,179.877 270,186.5C 275.903,177.792 283.736,175.292 293.5,179C 295.706,181.037 297.706,183.203 299.5,185.5 Z"/></g>
<g><path style="opacity:0.922" fill="#f9f9f9" d="M 468.5,184.5 C 471.351,179.459 473.684,174.125 475.5,168.5C 479.292,168.726 482.959,169.56 486.5,171C 487.687,172.019 488.687,173.186 489.5,174.5C 494.338,175.054 499.005,176.22 503.5,178C 505.036,179.599 505.536,181.433 505,183.5C 502.629,186.206 499.963,188.539 497,190.5C 494.876,189.378 493.043,187.878 491.5,186C 489.5,185.333 487.5,185.333 485.5,186C 481.664,191.838 478.498,198.005 476,204.5C 475.311,205.357 474.478,206.023 473.5,206.5C 470.366,204.708 467.033,203.375 463.5,202.5C 463.167,201.833 462.833,201.167 462.5,200.5C 463.98,194.891 465.98,189.557 468.5,184.5 Z"/></g>
<g><path style="opacity:0.988" fill="#f7da94" d="M 137.5,170.5 C 137.833,170.5 138.167,170.5 138.5,170.5C 139.117,170.611 139.617,170.944 140,171.5C 141.149,175.89 142.482,180.223 144,184.5C 145.257,186.746 147.09,188.079 149.5,188.5C 149.5,187.5 149.5,186.5 149.5,185.5C 150.451,186.919 150.784,188.585 150.5,190.5C 147.675,190.838 145.508,189.838 144,187.5C 141.233,181.983 139.067,176.316 137.5,170.5 Z"/></g>
<g><path style="opacity:1" fill="#facc60" d="M 145.5,176.5 C 145.34,178.199 145.506,179.866 146,181.5C 146.417,182.756 147.25,183.423 148.5,183.5C 149.338,183.842 149.672,184.508 149.5,185.5C 149.5,186.5 149.5,187.5 149.5,188.5C 147.09,188.079 145.257,186.746 144,184.5C 142.482,180.223 141.149,175.89 140,171.5C 139.617,170.944 139.117,170.611 138.5,170.5C 138.177,166.774 138.511,163.107 139.5,159.5C 140.984,164.769 142.151,170.102 143,175.5C 143.671,176.252 144.504,176.586 145.5,176.5 Z"/></g>
<g><path style="opacity:0.651" fill="#f3e1b2" d="M 227.5,168.5 C 228.091,172.964 226.758,176.631 223.5,179.5C 224.4,175.591 225.733,171.924 227.5,168.5 Z"/></g>
<g><path style="opacity:0.631" fill="#f5d993" d="M 145.5,176.5 C 147.065,178.509 148.065,180.843 148.5,183.5C 147.25,183.423 146.417,182.756 146,181.5C 145.506,179.866 145.34,178.199 145.5,176.5 Z"/></g>
<g><path style="opacity:1" fill="#f2cd74" d="M 222.5,163.5 C 224.565,163.517 226.565,163.85 228.5,164.5C 228.567,165.959 228.234,167.292 227.5,168.5C 225.733,171.924 224.4,175.591 223.5,179.5C 223.771,181.38 223.104,182.713 221.5,183.5C 219.956,183.703 218.622,184.37 217.5,185.5C 217.167,184.667 216.833,183.833 216.5,183C 217.86,180.73 218.527,178.23 218.5,175.5C 219.017,171.778 219.85,168.112 221,164.5C 221.383,163.944 221.883,163.611 222.5,163.5 Z"/></g>
<g><path style="opacity:0.943" fill="#f9f9f8" d="M 266.5,211.5 C 266.328,212.492 266.662,213.158 267.5,213.5C 270.914,224.824 267.914,233.99 258.5,241C 252.643,244.285 246.476,246.785 240,248.5C 237.739,248.113 236.406,246.779 236,244.5C 235.501,240.848 235.335,237.182 235.5,233.5C 242.295,233.517 248.129,231.184 253,226.5C 254.517,221.515 252.684,219.515 247.5,220.5C 242.167,221.5 236.833,222.5 231.5,223.5C 223.625,222.809 218.125,218.809 215,211.5C 213.122,202.465 215.956,195.299 223.5,190C 226.934,187.565 230.6,185.565 234.5,184C 237.528,182.86 239.695,183.694 241,186.5C 241.781,189.834 242.114,193.167 242,196.5C 236.849,197.327 232.515,199.661 229,203.5C 228.175,205.701 228.675,207.534 230.5,209C 237.568,208.038 244.568,206.538 251.5,204.5C 257.422,204.962 262.422,207.296 266.5,211.5 Z"/></g>
<g><path style="opacity:0.957" fill="#f6d68d" d="M 158.5,177.5 C 161.727,183.002 164.06,189.002 165.5,195.5C 166.325,196.386 167.325,196.719 168.5,196.5C 168.5,198.833 168.5,201.167 168.5,203.5C 163.564,195.618 160.23,186.951 158.5,177.5 Z"/></g>
<g><path style="opacity:0.757" fill="#f2d899" d="M 205.5,178.5 C 204.107,183.247 202.774,187.914 201.5,192.5C 201.138,187.257 202.472,182.591 205.5,178.5 Z"/></g>
<g><path style="opacity:0.928" fill="#f8f8f8" d="M 507.5,185.5 C 517.064,185.07 524.564,188.737 530,196.5C 529.858,201.962 527.024,204.128 521.5,203C 519.864,199.874 517.531,198.374 514.5,198.5C 518.087,202.667 520.92,207.334 523,212.5C 533.261,203.244 543.594,203.244 554,212.5C 560.441,220.026 561.108,228.026 556,236.5C 555.223,238.215 553.89,239.215 552,239.5C 549.62,238.799 547.453,237.633 545.5,236C 541.415,232.251 537.415,228.418 533.5,224.5C 531.101,229.121 532.435,232.621 537.5,235C 543.418,234.632 546.418,237.465 546.5,243.5C 546.291,244.994 545.624,246.161 544.5,247C 528.149,247.13 519.149,238.963 517.5,222.5C 512.603,224.911 507.603,225.078 502.5,223C 496.238,220.057 491.572,215.557 488.5,209.5C 490.597,206.275 493.597,204.275 497.5,203.5C 499.85,205.687 501.85,208.187 503.5,211C 504.448,211.483 505.448,211.649 506.5,211.5C 503.573,206.793 501.573,201.626 500.5,196C 501.174,191.199 503.507,187.699 507.5,185.5 Z M 539.5,218.5 C 544.703,216.855 547.203,218.855 547,224.5C 544.337,222.666 541.837,220.666 539.5,218.5 Z"/></g>
<g><path style="opacity:0.981" fill="#f5d78d" d="M 174.5,175.5 C 175.832,190.204 178.165,204.871 181.5,219.5C 181.843,221.483 181.176,222.817 179.5,223.5C 178.624,223.631 177.957,223.298 177.5,222.5C 175.857,219.555 174.524,216.555 173.5,213.5C 176.135,215.475 177.968,218.142 179,221.5C 179.889,222.888 180.389,222.722 180.5,221C 178.594,212.776 176.761,204.609 175,196.5C 174.502,193.183 174.335,189.85 174.5,186.5C 174.5,182.833 174.5,179.167 174.5,175.5 Z"/></g>
<g><path style="opacity:1" fill="#fccd60" d="M 174.5,139.5 C 174.5,140.833 174.5,142.167 174.5,143.5C 173.17,150.133 172.503,157.133 172.5,164.5C 172.667,171.5 172.833,178.5 173,185.5C 173.383,186.056 173.883,186.389 174.5,186.5C 174.335,189.85 174.502,193.183 175,196.5C 176.761,204.609 178.594,212.776 180.5,221C 180.389,222.722 179.889,222.888 179,221.5C 177.968,218.142 176.135,215.475 173.5,213.5C 172.87,209.574 171.204,206.241 168.5,203.5C 168.5,201.167 168.5,198.833 168.5,196.5C 167.325,196.719 166.325,196.386 165.5,195.5C 164.06,189.002 161.727,183.002 158.5,177.5C 158.421,176.07 158.754,174.736 159.5,173.5C 158.25,170.193 157.584,166.693 157.5,163C 157.667,159.833 157.833,156.667 158,153.5C 159.785,149.695 160.618,145.695 160.5,141.5C 163.98,138.663 166.313,134.996 167.5,130.5C 167.5,129.833 167.833,129.5 168.5,129.5C 170.027,129.573 171.027,128.906 171.5,127.5C 173.441,127.131 175.275,126.464 177,125.5C 176.507,130.182 175.674,134.848 174.5,139.5 Z"/></g>
<g><path style="opacity:0.778" fill="#f7dca1" d="M 191.5,168.5 C 191.5,173.5 191.5,178.5 191.5,183.5C 191.037,186.482 190.704,189.482 190.5,192.5C 189.833,194.167 189.167,195.833 188.5,197.5C 189.548,187.701 190.548,178.034 191.5,168.5 Z"/></g>
<g><path style="opacity:0.051" fill="#fceac1" d="M 201.5,192.5 C 201.771,194.38 201.104,195.713 199.5,196.5C 199.66,194.847 200.326,193.514 201.5,192.5 Z"/></g>
<g><path style="opacity:1" fill="#f8cd6a" d="M 206.5,159.5 C 206.833,159.5 207.167,159.5 207.5,159.5C 207.663,166.062 206.996,172.395 205.5,178.5C 202.472,182.591 201.138,187.257 201.5,192.5C 200.326,193.514 199.66,194.847 199.5,196.5C 199.834,199.491 198.834,201.824 196.5,203.5C 194.643,205.282 193.643,207.615 193.5,210.5C 193.5,210.833 193.5,211.167 193.5,211.5C 191.636,212.82 189.969,214.487 188.5,216.5C 187.754,217.736 187.421,219.07 187.5,220.5C 186.5,220.5 185.5,220.5 184.5,220.5C 184.5,218.833 184.5,217.167 184.5,215.5C 186.483,212.201 187.483,208.534 187.5,204.5C 187.198,201.941 187.532,199.607 188.5,197.5C 189.167,195.833 189.833,194.167 190.5,192.5C 191.248,194.735 192.081,194.402 193,191.5C 192.975,186.201 194.142,181.201 196.5,176.5C 199.175,175.004 201.175,175.671 202.5,178.5C 203.328,174.204 203.828,169.871 204,165.5C 204.585,163.339 205.418,161.339 206.5,159.5 Z"/></g>
<g><path style="opacity:0.906" fill="#eed392" d="M 218.5,175.5 C 218.527,178.23 217.86,180.73 216.5,183C 216.833,183.833 217.167,184.667 217.5,185.5C 218.622,184.37 219.956,183.703 221.5,183.5C 216.735,193.272 210.401,201.939 202.5,209.5C 201.167,209.5 200.5,208.833 200.5,207.5C 207.562,197.371 213.562,186.704 218.5,175.5 Z"/></g>
<g><path style="opacity:0.792" fill="#f2da9e" d="M 196.5,203.5 C 196.241,206.272 195.241,208.605 193.5,210.5C 193.643,207.615 194.643,205.282 196.5,203.5 Z"/></g>
<g><path style="opacity:0.639" fill="#eadda3" d="M 165.5,210.5 C 164.798,211.116 163.798,211.116 162.5,210.5C 160.028,209.358 159.028,207.358 159.5,204.5C 162.363,205.492 164.363,207.492 165.5,210.5 Z"/></g>
<g><path style="opacity:1" fill="#f8d98f" d="M 168.5,203.5 C 171.204,206.241 172.87,209.574 173.5,213.5C 170.325,211.008 168.659,207.674 168.5,203.5 Z"/></g>
<g><path style="opacity:0.694" fill="#f5db9f" d="M 187.5,204.5 C 187.483,208.534 186.483,212.201 184.5,215.5C 184.926,211.573 185.926,207.907 187.5,204.5 Z"/></g>
<g><path style="opacity:0.471" fill="#f4e6c2" d="M 200.5,207.5 C 200.5,208.833 201.167,209.5 202.5,209.5C 200.539,211.963 198.372,214.297 196,216.5C 195.874,212.765 197.374,209.765 200.5,207.5 Z"/></g>
<g><path style="opacity:0.247" fill="#f7ebcd" d="M 162.5,210.5 C 163.798,211.116 164.798,211.116 165.5,210.5C 167.957,211.555 169.623,213.388 170.5,216C 170,216.167 169.5,216.333 169,216.5C 166.675,214.675 164.508,212.675 162.5,210.5 Z"/></g>
<g><path style="opacity:0.671" fill="#f3dea7" d="M 131.5,215.5 C 133.441,216.436 135.108,217.77 136.5,219.5C 135.675,220.386 134.675,220.719 133.5,220.5C 132.833,224.5 132.167,224.5 131.5,220.5C 130.325,220.719 129.325,220.386 128.5,219.5C 129.826,218.358 130.826,217.024 131.5,215.5 Z"/></g>
<g><path style="opacity:0.233" fill="#f3e0a0" d="M 193.5,211.5 C 190.765,216.915 188.099,221.915 185.5,226.5C 182.184,228.042 180.184,227.042 179.5,223.5C 181.176,222.817 181.843,221.483 181.5,219.5C 182.268,220.263 182.768,221.263 183,222.5C 183.186,219.964 183.686,217.631 184.5,215.5C 184.5,217.167 184.5,218.833 184.5,220.5C 185.5,220.5 186.5,220.5 187.5,220.5C 187.421,219.07 187.754,217.736 188.5,216.5C 189.969,214.487 191.636,212.82 193.5,211.5 Z"/></g>
<g><path style="opacity:0.878" fill="#f5d895" d="M 146.5,237.5 C 146.167,238.167 145.833,238.833 145.5,239.5C 144.391,239.443 143.391,239.11 142.5,238.5C 141.665,237.057 140.332,236.057 138.5,235.5C 139.376,234.749 140.376,234.249 141.5,234C 142.05,232.155 143.05,230.655 144.5,229.5C 145.5,232.5 147.5,234.5 150.5,235.5C 149.234,236.362 147.901,237.029 146.5,237.5 Z"/></g>
<g><path style="opacity:0.761" fill="#f7ce62" d="M 146.5,237.5 C 145.5,237.5 144.5,237.5 143.5,237.5C 143.238,236.022 143.571,234.689 144.5,233.5C 146.111,234.32 146.778,235.654 146.5,237.5 Z"/></g>
<g><path style="opacity:0.231" fill="#faf0e4" d="M 142.5,238.5 C 143.391,239.11 144.391,239.443 145.5,239.5C 144.14,242.015 143.14,241.682 142.5,238.5 Z"/></g>
<g><path style="opacity:0.199" fill="#eda787" d="M 172.5,242.5 C 178.842,242.334 185.175,242.5 191.5,243C 192.464,247.066 192.797,251.233 192.5,255.5C 185.833,255.5 179.167,255.5 172.5,255.5C 172.5,251.167 172.5,246.833 172.5,242.5 Z"/></g>
<g><path style="opacity:1" fill="#fd8858" d="M 173.5,244.5 C 179.167,244.5 184.833,244.5 190.5,244.5C 190.5,247.833 190.5,251.167 190.5,254.5C 185.167,254.5 179.833,254.5 174.5,254.5C 174.167,251.167 173.833,247.833 173.5,244.5 Z"/></g>
</svg>
